<?xml version="1.0" encoding="UTF-8" standalone="no"?>
<!-- Created with Inkscape (http://www.inkscape.org/) -->

<svg
   width="136.81604mm"
   height="34.581039mm"
   viewBox="0 0 136.81604 34.581039"
   version="1.1"
   id="svg5"
   inkscape:version="1.1.1 (3bf5ae0d25, 2021-09-20)"
   sodipodi:docname="euronews.svg"
   xmlns:inkscape="http://www.inkscape.org/namespaces/inkscape"
   xmlns:sodipodi="http://sodipodi.sourceforge.net/DTD/sodipodi-0.dtd"
   xmlns:xlink="http://www.w3.org/1999/xlink"
   xmlns="http://www.w3.org/2000/svg"
   xmlns:svg="http://www.w3.org/2000/svg">
  <sodipodi:namedview
     id="namedview7"
     pagecolor="#505050"
     bordercolor="#eeeeee"
     borderopacity="1"
     inkscape:pageshadow="0"
     inkscape:pageopacity="0"
     inkscape:pagecheckerboard="0"
     inkscape:document-units="mm"
     showgrid="false"
     fit-margin-top="0"
     fit-margin-left="0"
     fit-margin-right="0"
     fit-margin-bottom="0"
     inkscape:zoom="2.0762433"
     inkscape:cx="139.91617"
     inkscape:cy="81.637832"
     inkscape:window-width="2560"
     inkscape:window-height="1009"
     inkscape:window-x="1912"
     inkscape:window-y="-8"
     inkscape:window-maximized="1"
     inkscape:current-layer="layer4" />
  <defs
     id="defs2">
    <path
       id="a"
       d="m8.671875 0 2.296875-8.5625H9.828125L8.09375-1.4375H8.0625l-1.890625-7.125H4.9375l-1.921875 7.125h-.03125L1.3125-8.5625H.140625L2.34375 0h1.1875l1.984375-7.203125h.015625L7.484375 0Zm0 0" />
    <path
       id="b"
       d="M2.40625-3.546875 3.859375-7.53125h.03125L5.3125-3.546875zM3.265625-8.5625-.078125 0H1.09375l.953125-2.578125h3.625L6.609375 0H7.875L4.53125-8.5625Zm0 0" />
    <symbol
       id="c"
       overflow="visible">
      <path
         d="M17.390625 0v-2.03125H3.78125c.132813-.8125.484375-1.5625 1.046875-2.25s1.207031-1.320313 1.9375-1.90625c.738281-.582031 1.503906-1.113281 2.296875-1.59375.789063-.476563 1.476563-.914063 2.0625-1.3125.820313-.519531 1.597656-1.078125 2.328125-1.671875.738281-.59375 1.394531-1.238281 1.96875-1.9375.570313-.695313 1.023438-1.46875 1.359375-2.3125.34375-.84375.515625-1.773438.515625-2.796875 0-1.144531-.195312-2.148438-.578125-3.015625-.386719-.863281-.929687-1.578125-1.625-2.140625-.6875-.570313-1.492187-1.003906-2.40625-1.296875-.917969-.289063-1.917969-.4375-3-.4375-1.324219 0-2.484375.214844-3.484375.640625-.992187.429687-1.8125 1.027344-2.46875 1.796875-.648437.773437-1.132812 1.6875-1.453125 2.75-.3125 1.0625-.453125 2.226562-.421875 3.484375H4.0625c-.023437-.90625.066406-1.765625.265625-2.578125.195313-.820313.515625-1.546875.953125-2.171875.445313-.632813 1.023438-1.140625 1.734375-1.515625.707031-.375 1.566406-.5625 2.578125-.5625.738281 0 1.441406.117187 2.109375.34375.664063.21875 1.25.546875 1.75.984375.5.429687.894531.949219 1.1875 1.5625.289063.617187.4375 1.324219.4375 2.125 0 .980469-.171875 1.824219-.515625 2.53125-.335937.710937-.839844 1.402344-1.515625 2.078125-.667969.679687-1.429687 1.3125-2.28125 1.90625-.855469.59375-1.714844 1.179687-2.578125 1.75-.867187.574219-1.710937 1.171875-2.53125 1.796875-.8125.617187-1.546875 1.296875-2.203125 2.046875-.648437.742187-1.167969 1.578125-1.5625 2.515625-.398437.9375-.605469 2.011719-.625 3.21875Zm0 0"
         id="path1002" />
    </symbol>
    <symbol
       id="d"
       overflow="visible">
      <path
         d="M9.734375-24.703125c-1.78125 0-3.234375.390625-4.359375 1.171875-1.117187.78125-1.980469 1.78125-2.59375 3-.617187 1.210937-1.039062 2.558594-1.265625 4.046875-.21875 1.492187-.328125 2.960937-.328125 4.40625 0 1.429687.109375 2.890625.328125 4.390625.226563 1.492187.648438 2.84375 1.265625 4.0625C3.394531-2.414063 4.257813-1.425781 5.375-.65625 6.5.101563 7.953125.484375 9.734375.484375c1.789063 0 3.238281-.382812 4.34375-1.140625 1.113281-.769531 1.976563-1.757813 2.59375-2.96875.625-1.21875 1.046875-2.570313 1.265625-4.0625.21875-1.5.328125-2.972656.328125-4.421875 0-1.425781-.109375-2.882813-.328125-4.375-.21875-1.488281-.640625-2.835938-1.265625-4.046875-.617187-1.21875-1.480469-2.21875-2.59375-3-1.105469-.78125-2.554687-1.171875-4.34375-1.171875zm0 1.84375c1.394531 0 2.507813.367187 3.34375 1.09375.84375.71875 1.476563 1.617187 1.90625 2.6875.4375 1.074219.722656 2.242187.859375 3.5.144531 1.261719.21875 2.417969.21875 3.46875 0 1.074219-.07422 2.234375-.21875 3.484375-.136719 1.25-.421875 2.417969-.859375 3.5-.429687 1.085937-1.0625 1.992187-1.90625 2.71875-.835937.71875-1.949219 1.078125-3.34375 1.078125-1.40625 0-2.53125-.359375-3.375-1.078125-.835937-.726563-1.46875-1.632813-1.90625-2.71875-.429687-1.082031-.714844-2.25-.859375-3.5-.136719-1.25-.203125-2.410156-.203125-3.484375 0-1.050781.066406-2.207031.203125-3.46875.144531-1.257813.429688-2.425781.859375-3.5.4375-1.070313 1.070313-1.96875 1.90625-2.6875.84375-.726563 1.96875-1.09375 3.375-1.09375zm0 0"
         id="path1005" />
    </symbol>
    <symbol
       id="e"
       overflow="visible">
      <path
         d="M3.390625-19.78125v1.578125H9.875V0h2.203125v-24.5h-1.78125c-.167969 1.125-.445312 1.996094-.828125 2.609375-.386719.617187-.867187 1.074219-1.4375 1.375-.574219.304687-1.25.496094-2.03125.578125-.78125.08594-1.652344.136719-2.609375.15625zm0 0"
         id="path1008" />
    </symbol>
    <symbol
       id="f"
       overflow="visible">
      <path
         d="M15.46875-18.3125h2.203125c-.25-2.164063-1.023437-3.769531-2.3125-4.8125-1.28125-1.050781-3.015625-1.578125-5.203125-1.578125-1.335937 0-2.480469.234375-3.4375.703125-.960937.460937-1.761719 1.0625-2.40625 1.8125-.636719.75-1.148437 1.585937-1.53125 2.5-.386719.917969-.683594 1.828125-.890625 2.734375-.210937.898437-.34375 1.742187-.40625 2.53125-.054687.792969-.078125 1.433594-.078125 1.921875 0 2.40625.164063 4.433594.5 6.078125C2.25-4.773438 2.769531-3.4375 3.46875-2.40625 4.164063-1.382813 5.050781-.644531 6.125-.1875c1.070313.445313 2.351563.671875 3.84375.671875 1.21875 0 2.332031-.203125 3.34375-.609375 1.019531-.40625 1.894531-.972656 2.625-1.703125.738281-.738281 1.3125-1.613281 1.71875-2.625.40625-1.019531.609375-2.125.609375-3.3125 0-1.195313-.195312-2.296875-.578125-3.296875-.386719-1-.929687-1.859375-1.625-2.578125-.699219-.726563-1.542969-1.296875-2.53125-1.703125-.992187-.40625-2.105469-.609375-3.34375-.609375-1.40625 0-2.699219.375-3.875 1.125-1.179687.742187-2.058594 1.714844-2.640625 2.921875h-.0625c0-1.113281.078125-2.304688.234375-3.578125.164063-1.269531.492188-2.453125.984375-3.546875.488281-1.101563 1.175781-2.015625 2.0625-2.734375.882813-.726563 2.039063-1.09375 3.46875-1.09375 1.425781 0 2.585938.421875 3.484375 1.265625.894531.84375 1.4375 1.9375 1.625 3.28125zm-5.3125 4.203125c.925781 0 1.753906.171875 2.484375.515625.738281.335937 1.359375.792969 1.859375 1.375.507813.585937.894531 1.277344 1.15625 2.078125.269531.792969.40625 1.632812.40625 2.515625 0 .835937-.140625 1.636719-.421875 2.40625-.28125.773437-.683594 1.445312-1.203125 2.015625-.523437.574219-1.140625 1.03125-1.859375 1.375-.710937.335937-1.507812.5-2.390625.5-1.074219 0-1.996094-.160156-2.765625-.484375-.773437-.332031-1.40625-.785156-1.90625-1.359375-.5-.570313-.871094-1.238281-1.109375-2C4.175781-5.941406 4.0625-6.757813 4.0625-7.625c0-.914063.128906-1.765625.390625-2.546875.269531-.78125.664063-1.460938 1.1875-2.046875.53125-.582031 1.175781-1.039063 1.9375-1.375.757813-.34375 1.617188-.515625 2.578125-.515625zm0 0"
         id="path1011" />
    </symbol>
    <symbol
       id="g"
       overflow="visible">
      <path
         d="M4.90625-12.734375v-10.21875h8.1875c1.65625 0 2.992188.421875 4.015625 1.265625 1.03125.835937 1.546875 2.117187 1.546875 3.84375 0 1.71875-.515625 3-1.546875 3.84375-1.023437.84375-2.359375 1.265625-4.015625 1.265625zm-2.390625-12.25V0H4.90625v-10.703125h8.703125c1.125 0 2.140625-.15625 3.046875-.46875.914063-.320313 1.695313-.789063 2.34375-1.40625.65625-.625 1.15625-1.378906 1.5-2.265625.351563-.882813.53125-1.882813.53125-3 0-1.125-.179687-2.128906-.53125-3.015625-.34375-.882813-.84375-1.632813-1.5-2.25-.648437-.625-1.429687-1.09375-2.34375-1.40625-.90625-.3125-1.921875-.46875-3.046875-.46875zm0 0"
         id="path1014" />
    </symbol>
    <symbol
       id="h"
       overflow="visible">
      <path
         d="M16.734375 0v-18.0625H14.53125v9.484375c0 .917969-.109375 1.8125-.328125 2.6875-.210937.875-.539062 1.652344-.984375 2.328125-.4375.667969-.996094 1.210937-1.671875 1.625-.679687.40625-1.496094.609375-2.453125.609375-1.75 0-2.980469-.414063-3.6875-1.25-.710937-.84375-1.089844-2.082031-1.140625-3.71875V-18.0625H2.0625v11.734375c0 1.074219.113281 2.03125.34375 2.875.238281.835937.609375 1.542969 1.109375 2.125.5.585937 1.148438 1.03125 1.953125 1.34375.8125.3125 1.789063.46875 2.9375.46875 1.351563 0 2.582031-.320312 3.6875-.953125C13.195313-1.113281 14.039063-2.039063 14.625-3.25h.07813V0zm0 0"
         id="path1017" />
    </symbol>
    <symbol
       id="i"
       overflow="visible">
      <path
         d="M2.09375-24.984375V0H4.125v-3.4375h.078125c.507813 1.261719 1.34375 2.230469 2.5 2.90625 1.15625.675781 2.46875 1.015625 3.9375 1.015625 1.375 0 2.566406-.25 3.578125-.75 1.019531-.5 1.867188-1.1875 2.546875-2.0625.675781-.875 1.175781-1.890625 1.5-3.046875.332031-1.15625.5-2.375.5-3.65625s-.167969-2.5-.5-3.65625c-.324219-1.15625-.824219-2.171875-1.5-3.046875-.679687-.875-1.527344-1.566406-2.546875-2.078125-1.011719-.507813-2.203125-.765625-3.578125-.765625-.65625 0-1.3125.08594-1.96875.25-.648437.15625-1.25.40625-1.8125.75-.5625.335937-1.0625.746094-1.5 1.234375-.429687.492187-.757812 1.0625-.984375 1.71875h-.0625v-10.359375zM16.5625-9.03125c0 .9375-.117187 1.871094-.34375 2.796875-.21875.917969-.570312 1.742187-1.046875 2.46875-.480469.71875-1.09375 1.308594-1.84375 1.765625-.742187.449219-1.636719.671875-2.6875.671875-1.167969 0-2.15625-.222656-2.96875-.671875-.804687-.457031-1.453125-1.046875-1.953125-1.765625-.5-.726563-.859375-1.550781-1.078125-2.46875C4.421875-7.160156 4.3125-8.09375 4.3125-9.03125s.109375-1.863281.328125-2.78125c.21875-.914063.578125-1.734375 1.078125-2.453125.5-.726563 1.148438-1.320313 1.953125-1.78125.8125-.457031 1.800781-.6875 2.96875-.6875 1.050781 0 1.945313.230469 2.6875.6875.75.460937 1.363281 1.054687 1.84375 1.78125.476563.71875.828125 1.539062 1.046875 2.453125.226563.917969.34375 1.84375.34375 2.78125zm0 0"
         id="path1020" />
    </symbol>
    <symbol
       id="j"
       overflow="visible">
      <path
         d="M2.140625-24.984375V0H4.34375v-24.984375zm0 0"
         id="path1023" />
    </symbol>
    <symbol
       id="k"
       overflow="visible">
      <path
         d="M2.140625-24.984375v3.53125H4.34375v-3.53125zm0 6.921875V0H4.34375v-18.0625zm0 0"
         id="path1026" />
    </symbol>
    <symbol
       id="l"
       overflow="visible">
      <path
         d="M12.921875-12.78125H15.125c-.05469-.976563-.257812-1.828125-.609375-2.546875-.34375-.726563-.8125-1.335938-1.40625-1.828125-.59375-.488281-1.28125-.847656-2.0625-1.078125-.78125-.226563-1.632812-.34375-2.546875-.34375-.792969 0-1.589844.09375-2.390625.28125-.804687.179687-1.53125.46875-2.1875.875-.65625.398437-1.1875.921875-1.59375 1.578125-.40625.648437-.609375 1.421875-.609375 2.328125 0 .773437.125 1.421875.375 1.953125.257813.523437.613281.964844 1.0625 1.328125.457031.367187.988281.671875 1.59375.921875.613281.242187 1.28125.449219 2 .625l2.84375.640625c.488281.117187.972656.257812 1.453125.421875.476563.15625.898438.359375 1.265625.609375.375.242187.671875.542969.890625.90625.226563.367187.34375.8125.34375 1.34375 0 .636719-.164062 1.171875-.484375 1.609375-.3125.429687-.714844.78125-1.203125 1.0625-.492187.273437-1.023437.46875-1.59375.59375-.5625.117187-1.117187.171875-1.65625.171875-1.46875 0-2.699219-.378906-3.6875-1.140625-.992187-.757813-1.53125-1.882813-1.625-3.375h-2.21875c.1875 2.21875.9375 3.828125 2.25 4.828125 1.320313 1 3.046875 1.5 5.171875 1.5.84375 0 1.695313-.09375 2.5625-.28125.863281-.1796875 1.640625-.476563 2.328125-.90625.6875-.4375 1.25-1 1.6875-1.6875.445313-.695313.671875-1.535156.671875-2.515625 0-.789063-.152344-1.476563-.453125-2.0625-.304687-.582031-.695312-1.070313-1.171875-1.46875-.480469-.394531-1.03125-.710938-1.65625-.953125-.617187-.25-1.234375-.421875-1.859375-.515625l-2.9375-.65625c-.375-.09375-.789062-.21875-1.234375-.375-.4375-.15625-.84375-.347656-1.21875-.578125-.375-.226563-.6875-.507813-.9375-.84375-.242187-.34375-.359375-.757813-.359375-1.25 0-.582031.125-1.070313.375-1.46875.257813-.40625.597656-.726563 1.015625-.96875.425781-.25.890625-.425781 1.390625-.53125.5-.101563.992188-.15625 1.484375-.15625.632813 0 1.226563.07813 1.78125.234375.5625.148437 1.054688.386719 1.484375.71875.4375.324219.78125.734375 1.03125 1.234375.257813.5.40625 1.089844.4375 1.765625zm0 0"
         id="path1029" />
    </symbol>
    <symbol
       id="m"
       overflow="visible">
      <path
         d="M2.0625-24.984375V0h2.203125v-10.53125c.03125-.882813.175781-1.707031.4375-2.46875.269531-.757813.644531-1.410156 1.125-1.953125.476563-.550781 1.0625-.984375 1.75-1.296875.6875-.320313 1.472656-.484375 2.359375-.484375.882813 0 1.625.140625 2.21875.421875.601563.28125 1.078125.667969 1.421875 1.15625.351563.492187.597656 1.070312.734375 1.734375.144531.667969.21875 1.386719.21875 2.15625V0h2.203125v-11.625c0-1.070313-.109375-2.035156-.328125-2.890625-.210937-.863281-.570312-1.59375-1.078125-2.1875-.511719-.601563-1.195312-1.066406-2.046875-1.390625-.855469-.320313-1.914062-.484375-3.171875-.484375-1.28125 0-2.460937.335937-3.53125 1-1.074219.65625-1.820312 1.539062-2.234375 2.640625h-.078125v-10.046875zm0 0"
         id="path1032" />
    </symbol>
    <symbol
       id="n"
       overflow="visible">
      <path
         d="M2.0625-18.0625V0h2.203125v-10.53125c.03125-.882813.175781-1.707031.4375-2.46875.269531-.757813.644531-1.410156 1.125-1.953125.476563-.550781 1.0625-.984375 1.75-1.296875.6875-.320313 1.472656-.484375 2.359375-.484375.882813 0 1.625.140625 2.21875.421875.601563.28125 1.078125.667969 1.421875 1.15625.351563.492187.597656 1.070312.734375 1.734375.144531.667969.21875 1.386719.21875 2.15625V0h2.203125v-11.625c0-1.070313-.109375-2.035156-.328125-2.890625-.210937-.863281-.570312-1.59375-1.078125-2.1875-.511719-.601563-1.195312-1.066406-2.046875-1.390625-.855469-.320313-1.914062-.484375-3.171875-.484375-1.28125 0-2.460937.335937-3.53125 1-1.074219.65625-1.820312 1.539062-2.234375 2.640625h-.078125v-3.125zm0 0"
         id="path1035" />
    </symbol>
    <symbol
       id="o"
       overflow="visible">
      <path
         d="M17.359375-1.46875V-18.0625H15.15625v3.125h-.07813c-.210937-.5-.507812-.96875-.890625-1.40625-.386719-.445313-.824219-.835938-1.3125-1.171875-.492187-.34375-1.03125-.601563-1.625-.78125-.59375-.1875-1.230469-.28125-1.90625-.28125-1.304687 0-2.464844.242187-3.484375.71875C4.847656-17.390625 4-16.738281 3.3125-15.90625 2.625-15.082031 2.097656-14.113281 1.734375-13c-.367187 1.105469-.546875 2.277344-.546875 3.515625 0 1.28125.148438 2.492187.453125 3.625.300781 1.125.785156 2.109375 1.453125 2.953125.664063.84375 1.507813 1.507812 2.53125 1.984375 1.03125.480469 2.269531.71875 3.71875.71875 1.332031 0 2.492188-.335938 3.484375-1.015625.988281-.675781 1.738281-1.578125 2.25-2.703125h.07813v2.453125c0 2.1875-.460937 3.863281-1.375 5.03125-.90625 1.164063-2.386719 1.75-4.4375 1.75-.605474 0-1.199224-.0625-1.781255-.1875-.585937-.125-1.117187-.328125-1.59375-.609375-.480469-.28125-.890625-.652344-1.234375-1.109375-.335937-.449219-.558594-1.011719-.671875-1.6875H1.859375c.0625.957031.320313 1.78125.78125 2.46875.457031.6875 1.03125 1.25 1.71875 1.6875.6875.445313 1.460938.773438 2.328125.984375.863281.207031 1.75.3125 2.65625.3125 1.46875 0 2.707031-.199219 3.71875-.59375 1.019531-.398437 1.84375-.96875 2.46875-1.71875.632813-.742187 1.097656-1.648437 1.390625-2.71875.289063-1.074219.4375-2.273438.4375-3.609375zM9.34375-2.0625c-1.023437 0-1.90625-.203125-2.65625-.609375-.75-.414063-1.371094-.953125-1.859375-1.609375-.492187-.664063-.855469-1.429688-1.09375-2.296875-.230469-.863281-.34375-1.75-.34375-2.65625 0-.9375.109375-1.851563.328125-2.75.226563-.894531.585938-1.691406 1.078125-2.390625.488281-.707031 1.101563-1.273438 1.84375-1.703125.75-.4375 1.648438-.65625 2.703125-.65625 1.050781 0 1.941406.226562 2.671875.671875.738281.4375 1.34375 1.023437 1.8125 1.75.46875.71875.804688 1.527344 1.015625 2.421875.207031.886719.3125 1.773437.3125 2.65625 0 .90625-.125 1.792969-.375 2.65625-.242187.867187-.605469 1.632812-1.09375 2.296875-.492187.65625-1.101562 1.195312-1.828125 1.609375-.71875.40625-1.558594.609375-2.515625.609375zm0 0"
         id="path1038" />
    </symbol>
    <symbol
       id="p"
       overflow="visible">
      <path
         d="M20.796875-17.4375h2.375c-.167969-1.300781-.5625-2.453125-1.1875-3.453125C21.367188-21.898438 20.601563-22.75 19.6875-23.4375c-.917969-.6875-1.945312-1.203125-3.078125-1.546875-1.136719-.351563-2.296875-.53125-3.484375-.53125-1.960937 0-3.683594.359375-5.171875 1.078125-1.480469.710937-2.710937 1.664062-3.6875 2.859375-.980469 1.199219-1.714844 2.585937-2.203125 4.15625-.492187 1.5625-.734375 3.203125-.734375 4.921875 0 1.730469.242188 3.375.734375 4.9375C2.550781-6 3.285156-4.617188 4.265625-3.421875c.976563 1.1875 2.207031 2.136719 3.6875 2.84375C9.441406.128906 11.164063.484375 13.125.484375c1.46875 0 2.800781-.230469 4-.6875 1.207031-.46875 2.253906-1.132813 3.140625-2C21.148438-3.066406 21.875-4.113281 22.4375-5.34375c.5625-1.238281.921875-2.628906 1.078125-4.171875h-2.375c-.117187 1.117187-.386719 2.15625-.8125 3.125-.417969.96875-.964844 1.820312-1.640625 2.546875-.679687.71875-1.484375 1.292969-2.421875 1.71875-.929687.417969-1.976562.625-3.140625.625-1.65625 0-3.085937-.3125-4.28125-.9375-1.1875-.632813-2.164062-1.472656-2.921875-2.515625-.75-1.039063-1.308594-2.21875-1.671875-3.53125-.367187-1.320313-.546875-2.660156-.546875-4.015625 0-1.375.179688-2.710938.546875-4.015625.363281-1.3125.921875-2.484375 1.671875-3.515625.757813-1.039063 1.734375-1.875 2.921875-2.5 1.195313-.632813 2.625-.953125 4.28125-.953125.90625 0 1.769531.136719 2.59375.40625.832031.261719 1.59375.652344 2.28125 1.171875.695313.511719 1.28125 1.148437 1.75 1.90625.476563.761719.828125 1.617187 1.046875 2.5625zm0 0"
         id="path1041" />
    </symbol>
    <symbol
       id="q"
       overflow="visible">
      <path
         d="M1.890625-12.53125H4.09375C4.144531-14 4.613281-15.066406 5.5-15.734375c.882813-.664063 2.023438-1 3.421875-1 .65625 0 1.269531.05469 1.84375.15625.570313.105469 1.070313.296875 1.5.578125.4375.28125.773438.664062 1.015625 1.140625.25.480469.375 1.09375.375 1.84375 0 .492187-.07031.886719-.203125 1.1875-.125.304687-.308594.542969-.546875.71875-.230469.179687-.523437.304687-.875.375-.34375.0625-.75.121094-1.21875.171875-1.1875.136719-2.359375.28125-3.515625.4375-1.15625.148437-2.199219.40625-3.125.78125-.917969.375-1.65625.917969-2.21875 1.625C1.398438-7.007813 1.125-6.023438 1.125-4.765625c0 .917969.15625 1.710937.46875 2.375C1.90625-1.734375 2.332031-1.1875 2.875-.75c.550781.429687 1.195313.7421875 1.9375.9375.738281.195313 1.523438.296875 2.359375.296875.882813 0 1.648438-.085937 2.296875-.25.644531-.15625 1.21875-.382813 1.71875-.6875.5-.300781.953125-.679688 1.359375-1.140625.40625-.457031.804688-.976563 1.203125-1.5625h.07813c0 .46875.02344.898437.07813 1.28125.0625.386719.1875.71875.375 1s.445313.5.78125.65625C15.40625-.0703125 15.859375 0 16.421875 0c.300781 0 .550781-.0078125.75-.03125.195313-.0195313.421875-.0546875.671875-.109375V-2c-.210937.09375-.4375.140625-.6875.140625-.867187 0-1.296875-.441406-1.296875-1.328125v-9.59375c0-1.207031-.199219-2.191406-.59375-2.953125-.398437-.757813-.914062-1.347656-1.546875-1.765625-.625-.414063-1.339844-.695313-2.140625-.84375-.792969-.15625-1.585937-.234375-2.375-.234375-1.054687 0-2.011719.117187-2.875.34375-.855469.230469-1.605469.589844-2.25 1.078125-.648437.492187-1.15625 1.121094-1.53125 1.890625-.367187.773437-.585937 1.683594-.65625 2.734375zM13.65625-9.875V-7c0 .886719-.171875 1.683594-.515625 2.390625-.335937.699219-.789062 1.292969-1.359375 1.78125-.574219.492187-1.246094.867187-2.015625 1.125-.773437.25-1.578125.375-2.421875.375-.511719 0-1.011719-.078125-1.5-.234375-.492187-.164063-.921875-.40625-1.296875-.71875-.375-.320313-.671875-.695313-.890625-1.125-.21875-.4375-.328125-.9375-.328125-1.5 0-.882813.257813-1.566406.78125-2.046875.53125-.476563 1.203125-.84375 2.015625-1.09375C6.9375-8.304688 7.835938-8.5 8.828125-8.625c1-.125 1.960938-.269531 2.890625-.4375.3125-.050781.664063-.132813 1.0625-.25.394531-.113281.660156-.300781.796875-.5625zm0 0"
         id="path1044" />
    </symbol>
    <symbol
       id="r"
       overflow="visible">
      <path
         d="M15.078125-10.296875h-11.6875c.09375-.8125.285156-1.609375.578125-2.390625.289063-.78125.679688-1.46875 1.171875-2.0625.488281-.59375 1.082031-1.070313 1.78125-1.4375.707031-.363281 1.515625-.546875 2.421875-.546875.882813 0 1.675781.183594 2.375.546875.707031.367187 1.304688.84375 1.796875 1.4375.488281.59375.863281 1.277344 1.125 2.046875.269531.773437.414063 1.574219.4375 2.40625zM3.390625-8.4375h13.90625c.03906-1.257813-.07813-2.5-.359375-3.71875-.28125-1.226563-.746094-2.3125-1.390625-3.25-.636719-.945313-1.46875-1.710938-2.5-2.296875-1.023437-.582031-2.257812-.875-3.703125-.875-1.429687 0-2.664062.277344-3.703125.828125-1.03125.542969-1.875 1.261719-2.53125 2.15625-.648437.898437-1.132812 1.917969-1.453125 3.0625-.3125 1.148437-.46875 2.3125-.46875 3.5 0 1.28125.15625 2.5.46875 3.65625.320313 1.15625.804688 2.171875 1.453125 3.046875.65625.875 1.5 1.5625 2.53125 2.0625 1.039063.5 2.273438.75 3.703125.75 2.289063 0 4.054688-.5546875 5.296875-1.671875 1.25-1.125 2.109375-2.710938 2.578125-4.765625h-2.203125c-.355469 1.40625-.984375 2.53125-1.890625 3.375-.90625.835937-2.167969 1.25-3.78125 1.25-1.054687 0-1.953125-.21875-2.703125-.65625-.742187-.445313-1.355469-1.007813-1.84375-1.6875-.492187-.675781-.851562-1.441406-1.078125-2.296875C3.5-6.820313 3.390625-7.644531 3.390625-8.4375Zm0 0"
         id="path1047" />
    </symbol>
    <symbol
       id="s"
       overflow="visible">
      <path
         d="M17.984375 0v-24.984375H15.78125V-14.625h-.0625c-.242187-.65625-.578125-1.226563-1.015625-1.71875-.429687-.488281-.921875-.898438-1.484375-1.234375-.554687-.34375-1.152344-.59375-1.796875-.75-.636719-.164063-1.292969-.25-1.96875-.25-1.375 0-2.574219.257812-3.59375.765625-1.011719.511719-1.855469 1.203125-2.53125 2.078125-.679687.875-1.183594 1.890625-1.515625 3.046875-.324219 1.15625-.484375 2.375-.484375 3.65625s.160156 2.5.484375 3.65625c.332031 1.15625.835938 2.171875 1.515625 3.046875.675781.875 1.519531 1.5625 2.53125 2.0625 1.019531.5 2.21875.75 3.59375.75.65625 0 1.3125-.09375 1.96875-.28125.664063-.1796875 1.289063-.429688 1.875-.765625.582031-.34375 1.101563-.757813 1.5625-1.25.457031-.5.800781-1.039063 1.03125-1.625h.0625V0zM3.53125-9.03125c0-.9375.109375-1.863281.328125-2.78125.226563-.914063.582031-1.734375 1.0625-2.453125.476563-.726563 1.085938-1.320313 1.828125-1.78125.75-.457031 1.648438-.6875 2.703125-.6875 1.164063 0 2.148438.230469 2.953125.6875.800781.460937 1.453125 1.054687 1.953125 1.78125.507813.71875.875 1.539062 1.09375 2.453125.21875.917969.328125 1.84375.328125 2.78125s-.109375 1.871094-.328125 2.796875c-.21875.917969-.585937 1.742187-1.09375 2.46875-.5.71875-1.152344 1.308594-1.953125 1.765625-.804687.449219-1.789062.671875-2.953125.671875C8.398438-1.328125 7.5-1.550781 6.75-2c-.742187-.457031-1.351562-1.046875-1.828125-1.765625-.480469-.726563-.835937-1.550781-1.0625-2.46875-.21875-.925781-.328125-1.859375-.328125-2.796875Zm0 0"
         id="path1050" />
    </symbol>
    <symbol
       id="t"
       overflow="visible">
      <path
         d="M2.09375-18.0625V0H4.3125v-9.625c0-.957031.160156-1.835938.484375-2.640625.320313-.800781.78125-1.492188 1.375-2.078125.59375-.582031 1.296875-1.03125 2.109375-1.34375.820313-.320313 1.738281-.457031 2.75-.40625v-2.21875c-1.636719-.0625-3.042969.304687-4.21875 1.09375-1.179687.792969-2.046875 1.921875-2.609375 3.390625H4.125V-18.0625zm0 0"
         id="path1053" />
    </symbol>
    <symbol
       id="u"
       overflow="visible">
      <path
         d="M4.265625 0v-8.515625h-.78125c-.054687.324219-.15625.589844-.3125.796875-.148437.210937-.328125.375-.546875.5-.21875.117187-.46875.199219-.75.25-.273437.042969-.546875.0625-.828125.0625v.8125H3.25V0Zm0 0"
         id="path1056" />
    </symbol>
    <symbol
       id="v"
       overflow="visible">
      <path
         d="M1.578125-4.1875v-.6875c.00781-.25.03125-.5.0625-.75.039063-.257813.09375-.507813.15625-.75.070313-.238281.171875-.445313.296875-.625.132813-.175781.300781-.320313.5-.4375.207031-.113281.457031-.171875.75-.171875.28125 0 .519531.058594.71875.171875.207031.117187.375.261719.5.4375.132813.179687.234375.386719.296875.625.070313.242187.125.492187.15625.75.039063.25.0625.5.0625.75.00781.25.015625.480469.015625.6875 0 .324219-.011719.683594-.03125 1.078125-.023437.398437-.089844.773437-.203125 1.125-.105469.34375-.277344.636719-.515625.875-.242187.242187-.574219.359375-1 .359375-.4375 0-.777344-.117188-1.015625-.359375-.242187-.238281-.417969-.53125-.53125-.875-.105469-.351563-.167969-.726563-.1875-1.125-.023437-.394531-.03125-.753906-.03125-1.078125ZM.5-4.171875c0 .3125.003906.636719.015625.96875.019531.335937.0625.664062.125.984375.070313.324219.164063.625.28125.90625.125.28125.289063.53125.5.75.207031.21875.46875.390625.78125.515625C2.515625.0664063 2.894531.125 3.34375.125c.445313 0 .820313-.0585937 1.125-.171875.3125-.125.570313-.296875.78125-.515625.207031-.21875.367188-.46875.484375-.75.125-.28125.21875-.582031.28125-.90625.070313-.320313.113281-.648438.125-.984375.019531-.332031.03125-.65625.03125-.96875s-.011719-.632813-.03125-.96875c-.011719-.34375-.054687-.671875-.125-.984375-.0625-.320313-.15625-.625-.28125-.90625-.117187-.289063-.277344-.546875-.484375-.765625-.210937-.21875-.46875-.390625-.78125-.515625-.3125-.132813-.6875-.203125-1.125-.203125-.449219 0-.828125.070312-1.140625.203125-.3125.125-.574219.296875-.78125.515625-.210937.21875-.375.476562-.5.765625-.117187.28125-.210937.585937-.28125.90625-.0625.3125-.105469.640625-.125.984375C.503906-4.804688.5-4.484375.5-4.171875Zm0 0"
         id="path1059" />
    </symbol>
    <symbol
       id="w"
       overflow="visible">
      <use
         xlink:href="#a"
         id="use1062" />
    </symbol>
    <symbol
       id="x"
       overflow="visible">
      <path
         d="M1.84375-7.3125v-1.25H.828125v1.25zM.828125-6.203125V0H1.84375v-6.203125zm0 0"
         id="path1065" />
    </symbol>
    <symbol
       id="y"
       overflow="visible">
      <path
         d="M.828125-8.5625V0H1.84375v-8.5625zm0 0"
         id="path1068" />
    </symbol>
    <symbol
       id="z"
       overflow="visible">
      <path
         d="M1.390625-1.953125H.375c.007813.386719.085938.714844.234375.984375.144531.261719.335938.476562.578125.640625.238281.167969.515625.28125.828125.34375C2.328125.0859375 2.65625.125 3 .125c.3125 0 .625-.03125.9375-.09375.320313-.0507813.609375-.148438.859375-.296875.25-.15625.453125-.359375.609375-.609375s.234375-.5625.234375-.9375c0-.289063-.058594-.535156-.171875-.734375-.117187-.207031-.265625-.375-.453125-.5-.1875-.132813-.40625-.238281-.65625-.3125-.242187-.082031-.492187-.15625-.75-.21875-.242187-.050781-.480469-.101563-.71875-.15625-.242187-.050781-.460937-.113281-.65625-.1875-.1875-.082031-.34375-.179688-.46875-.296875-.125-.113281-.1875-.257813-.1875-.4375 0-.15625.039063-.285156.125-.390625.082031-.101563.1875-.179688.3125-.234375.125-.0625.265625-.101563.421875-.125.15625-.03125.3125-.046875.46875-.046875.164063 0 .328125.023437.484375.0625.164063.03125.316406.089844.453125.171875.144531.085937.257813.195312.34375.328125.082031.125.132813.289062.15625.484375h1.015625c-.023437-.375-.101562-.6875-.234375-.9375-.136719-.25-.320312-.445313-.546875-.59375-.230469-.15625-.496094-.257813-.796875-.3125-.292969-.0625-.617187-.09375-.96875-.09375-.273437 0-.546875.039062-.828125.109375-.273437.0625-.515625.167969-.734375.3125-.21875.136719-.402344.320312-.546875.546875C.566406-5.15625.5-4.890625.5-4.578125c0 .398437.097656.710937.296875.9375.207031.21875.457031.390625.75.515625.300781.125.628906.226562.984375.296875.351563.0625.675781.136719.96875.21875.300781.085937.550781.195312.75.328125.207031.136719.3125.335937.3125.59375 0 .199219-.054687.359375-.15625.484375-.09375.125-.214844.21875-.359375.28125-.148437.0625-.308594.109375-.484375.140625-.179687.023437-.34375.03125-.5.03125-.210937 0-.414062-.019531-.609375-.0625-.199219-.039063-.375-.109375-.53125-.203125s-.28125-.21875-.375-.375-.148437-.34375-.15625-.5625zm0 0"
         id="path1071" />
    </symbol>
    <symbol
       id="A"
       overflow="visible">
      <path
         d="M1.515625-3.09375c0-.375.046875-.707031.140625-1 .101563-.289063.242188-.535156.421875-.734375.175781-.207031.378906-.363281.609375-.46875.238281-.101563.488281-.15625.75-.15625.269531 0 .519531.054687.75.15625.238281.105469.445313.261719.625.46875.175781.199219.3125.445312.40625.734375.101563.292969.15625.625.15625 1s-.054687.710937-.15625 1c-.09375.292969-.230469.539062-.40625.734375-.179687.199219-.386719.351562-.625.453125-.230469.105469-.480469.15625-.75.15625-.261719 0-.511719-.050781-.75-.15625-.230469-.101563-.433594-.253906-.609375-.453125-.179687-.195313-.320312-.441406-.421875-.734375-.09375-.289063-.140625-.625-.140625-1zm-1.078125 0c0 .460937.0625.886719.1875 1.28125.125.386719.3125.726562.5625 1.015625.257813.292969.578125.523437.953125.6875C2.523438.046875 2.957031.125 3.4375.125c.5 0 .929688-.078125 1.296875-.234375.375-.164063.691406-.394531.953125-.6875.257813-.289063.453125-.628906.578125-1.015625.125-.394531.1875-.820313.1875-1.28125 0-.457031-.0625-.882813-.1875-1.28125-.125-.394531-.320312-.738281-.578125-1.03125-.261719-.289063-.578125-.519531-.953125-.6875-.367187-.164063-.796875-.25-1.296875-.25-.480469 0-.914062.085937-1.296875.25-.375.167969-.695312.398437-.953125.6875C.9375-5.113281.75-4.769531.625-4.375.5-3.976563.4375-3.550781.4375-3.09375Zm0 0"
         id="path1074" />
    </symbol>
    <symbol
       id="B"
       overflow="visible">
      <path
         d="M.765625-6.203125V0H1.78125v-3.5c0-.28125.035156-.535156.109375-.765625.082031-.238281.195313-.445313.34375-.625.15625-.175781.347656-.3125.578125-.40625.226563-.101563.5-.15625.8125-.15625.394531 0 .703125.117187.921875.34375.226563.21875.34375.523437.34375.90625V0H5.90625v-4.078125c0-.332031-.039062-.632813-.109375-.90625-.0625-.28125-.179687-.519531-.34375-.71875-.167969-.207031-.390625-.363281-.671875-.46875-.273437-.113281-.609375-.171875-1.015625-.171875-.917969 0-1.589844.375-2.015625 1.125h-.015625v-.984375zm0 0"
         id="path1077" />
    </symbol>
    <symbol
       id="C"
       overflow="visible">
      <path
         d="M2.078125-4.890625v-2.71875h2.28125c.25 0 .484375.015625.703125.046875.21875.023437.410156.085937.578125.1875.164063.09375.296875.230469.390625.40625.101563.179687.15625.417969.15625.71875 0 .460937-.148437.804687-.4375 1.03125-.28125.21875-.746094.328125-1.390625.328125ZM.9375-8.5625V0h4.140625c.425781 0 .800781-.0664063 1.125-.203125.320313-.144531.59375-.332031.8125-.5625.21875-.226563.382813-.488281.5-.78125.113281-.289063.171875-.59375.171875-.90625 0-.53125-.140625-.976563-.421875-1.34375-.28125-.375-.6875-.617188-1.21875-.734375v-.015625c.40625-.15625.71875-.398438.9375-.734375.21875-.332031.328125-.726563.328125-1.1875 0-.425781-.101562-.785156-.296875-1.078125-.1875-.300781-.421875-.535156-.703125-.703125-.125-.082031-.28125-.144531-.46875-.1875-.179687-.039063-.371094-.070313-.578125-.09375-.210937-.019531-.421875-.03125-.640625-.03125h-.578125zM2.078125-.953125v-2.96875H4.6875c.238281 0 .46875.023437.6875.0625.226563.042969.425781.121094.59375.234375.175781.105469.316406.25.421875.4375.101563.179687.15625.40625.15625.6875 0 .480469-.148437.859375-.4375 1.140625-.28125.273437-.671875.40625-1.171875.40625zm0 0"
         id="path1080" />
    </symbol>
    <symbol
       id="D"
       overflow="visible">
      <path
         d="M5.90625 0v-6.203125H4.890625v3.5c0 .28125-.042969.542969-.125.78125-.074219.230469-.1875.433594-.34375.609375-.148437.179687-.335937.320312-.5625.421875-.230469.09375-.5.140625-.8125.140625-.398437 0-.710937-.109375-.9375-.328125C1.890625-1.304688 1.78125-1.613281 1.78125-2v-4.203125H.765625V-2.125c0 .335937.03125.640625.09375.921875.070313.273437.191406.511719.359375.71875.164063.199219.382813.351562.65625.453125C2.15625.0703125 2.5.125 2.90625.125c.457031 0 .851563-.0898437 1.1875-.265625.332031-.175781.609375-.457031.828125-.84375H4.9375V0zm0 0"
         id="path1083" />
    </symbol>
    <symbol
       id="E"
       overflow="visible">
      <path
         d="M5.078125-3.703125h-3.5625c.007813-.238281.054688-.460938.140625-.671875.09375-.207031.210938-.390625.359375-.546875.15625-.164063.335938-.296875.546875-.390625.21875-.09375.457031-.140625.71875-.140625.257813 0 .492188.046875.703125.140625.21875.09375.40625.21875.5625.375s.273438.34375.359375.5625c.09375.210937.148438.433594.171875.671875ZM6.0625-1.96875H5.046875c-.085937.40625-.265625.714844-.546875.921875C4.226563-.847656 3.875-.75 3.4375-.75c-.335937 0-.625-.054688-.875-.171875-.242187-.113281-.445312-.265625-.609375-.453125-.15625-.1875-.273437-.398438-.34375-.640625-.074219-.25-.105469-.507813-.09375-.78125H6.15625c.019531-.375-.015625-.769531-.109375-1.1875C5.960938-4.398438 5.8125-4.78125 5.59375-5.125c-.21875-.351563-.511719-.644531-.875-.875-.367187-.226563-.824219-.34375-1.375-.34375-.417969 0-.808594.078125-1.171875.234375-.355469.15625-.664062.382812-.921875.671875-.261719.292969-.464844.636719-.609375 1.03125C.503906-4.019531.4375-3.59375.4375-3.125c.007813.480469.078125.917969.203125 1.3125.125.398437.3125.742187.5625 1.03125.25.292969.550781.515625.90625.671875C2.472656.046875 2.90625.125 3.40625.125c.707031 0 1.289063-.171875 1.75-.515625.46875-.351563.769531-.878906.90625-1.578125Zm0 0"
         id="path1086" />
    </symbol>
    <symbol
       id="F"
       overflow="visible">
      <path
         d="m3.5625 0 2.265625-6.203125h-1.0625l-1.6875 5.171875h-.03125L1.3125-6.203125H.171875L2.46875 0Zm0 0"
         id="path1089" />
    </symbol>
    <symbol
       id="G"
       overflow="visible">
      <path
         d="M6.265625-.03125C6.085938.0703125 5.84375.125 5.53125.125c-.261719 0-.46875-.0742187-.625-.21875C4.75-.238281 4.671875-.476563 4.671875-.8125c-.28125.335937-.609375.574219-.984375.71875C3.3125.0507813 2.910156.125 2.484375.125 2.203125.125 1.9375.09375 1.6875.03125s-.46875-.160156-.65625-.296875c-.1875-.132813-.335937-.3125-.4375-.53125C.488281-1.015625.4375-1.28125.4375-1.59375c0-.351563.054688-.640625.171875-.859375.125-.226563.28125-.410156.46875-.546875.195313-.144531.421875-.253906.671875-.328125.257813-.070313.519531-.128906.78125-.171875.28125-.0625.546875-.101563.796875-.125.25-.03125.46875-.070313.65625-.125.195313-.050781.351563-.125.46875-.21875.113281-.101563.171875-.253906.171875-.453125 0-.21875-.042969-.394531-.125-.53125-.085937-.132813-.195312-.238281-.328125-.3125-.136719-.070313-.289062-.117188-.453125-.140625-.15625-.03125-.320312-.046875-.484375-.046875-.429687 0-.789062.085937-1.078125.25-.28125.167969-.4375.480469-.46875.9375H.671875c.019531-.382813.097656-.707031.234375-.96875.144531-.269531.335938-.484375.578125-.640625.238281-.164063.507813-.285156.8125-.359375.3125-.070313.644531-.109375 1-.109375.28125 0 .554688.023437.828125.0625.28125.03125.53125.109375.75.234375.226563.125.410156.304687.546875.53125.132813.21875.203125.511719.203125.875v3.1875c0 .242187.015625.417969.046875.53125.03125.117187.125.171875.28125.171875.082031 0 .1875-.019531.3125-.0625zm-1.65625-3.171875c-.125.09375-.292969.167969-.5.21875-.210937.042969-.429687.078125-.65625.109375-.230469.023437-.464844.054687-.703125.09375-.230469.03125-.4375.089844-.625.171875-.179687.074219-.324219.1875-.4375.34375-.117187.148437-.171875.34375-.171875.59375 0 .167969.03125.3125.09375.4375.070313.117187.160156.210937.265625.28125.113281.0625.238281.117187.375.15625.144531.03125.300781.046875.46875.046875.332031 0 .617188-.046875.859375-.140625.238281-.09375.429688-.207031.578125-.34375.15625-.144531.269531-.296875.34375-.453125.070313-.164063.109375-.320313.109375-.46875Zm0 0"
         id="path1092" />
    </symbol>
    <symbol
       id="H"
       overflow="visible">
      <path
         d="M.734375-6.203125V0H1.75v-2.765625c0-.394531.035156-.742188.109375-1.046875.082031-.3125.210938-.578125.390625-.796875.175781-.21875.410156-.378906.703125-.484375C3.242188-5.207031 3.59375-5.265625 4-5.265625V-6.34375c-.554687-.019531-1.011719.089844-1.375.328125-.355469.242187-.65625.617187-.90625 1.125H1.6875v-1.3125zm0 0"
         id="path1095" />
    </symbol>
    <symbol
       id="I"
       overflow="visible">
      <path
         d="M1.515625-3.046875c0-.300781.03125-.597656.09375-.890625.0625-.289063.164063-.546875.3125-.765625.144531-.226563.335938-.410156.578125-.546875.238281-.132813.53125-.203125.875-.203125.351563 0 .648438.070312.890625.203125.25.136719.453125.3125.609375.53125.15625.210937.269531.460937.34375.75.070313.28125.109375.574219.109375.875 0 .292969-.039062.578125-.109375.859375-.0625.273437-.171875.523437-.328125.75-.148437.21875-.339844.398437-.578125.53125C4.070313-.816406 3.78125-.75 3.4375-.75c-.335937 0-.625-.0625-.875-.1875-.242187-.132813-.4375-.304688-.59375-.515625-.15625-.21875-.273437-.460938-.34375-.734375-.074219-.28125-.109375-.566406-.109375-.859375ZM6.3125 0v-8.5625H5.296875v3.1875h-.03125c-.117187-.1875-.257812-.34375-.421875-.46875-.15625-.125-.328125-.222656-.515625-.296875-.179687-.070313-.359375-.125-.546875-.15625s-.359375-.046875-.515625-.046875c-.46875 0-.886719.089844-1.25.265625-.355469.167969-.652344.398437-.890625.6875-.230469.292969-.402344.636719-.515625 1.03125C.492188-3.972656.4375-3.5625.4375-3.125c0 .449219.054688.871094.171875 1.265625.125.386719.300781.730469.53125 1.03125.238281.292969.535156.527344.890625.703125.351563.1640625.769531.25 1.25.25.4375 0 .832031-.0742187 1.1875-.21875.363281-.15625.628906-.40625.796875-.75h.03125V0zm0 0"
         id="path1098" />
    </symbol>
    <symbol
       id="J"
       overflow="visible">
      <path
         d="M3.46875-4.296875c0 .367187-.125.671875-.375.921875-.242187.25-.546875.375-.921875.375s-.6875-.125-.9375-.375C.992188-3.625.875-3.929688.875-4.296875c0-.375.117188-.679688.359375-.921875.25-.25.5625-.375.9375-.375s.679688.125.921875.375c.25.242187.375.546875.375.921875zm0 0"
         id="path1101" />
    </symbol>
    <symbol
       id="K"
       overflow="visible">
      <path
         d="M1.859375-6.296875c0-.21875.035156-.40625.109375-.5625.082031-.164063.191406-.300781.328125-.40625.132813-.113281.289063-.195313.46875-.25.1875-.0625.378906-.09375.578125-.09375.414063 0 .757813.109375 1.03125.328125.269531.21875.40625.546875.40625.984375 0 .429687-.136719.761719-.40625 1-.261719.242187-.59375.359375-1 .359375-.210937 0-.40625-.023438-.59375-.078125-.179687-.050781-.339844-.132813-.484375-.25-.136719-.113281-.246094-.253906-.328125-.421875-.074219-.175781-.109375-.378906-.109375-.609375ZM.78125-6.34375c0 .386719.101563.746094.3125 1.078125.21875.324219.507813.554687.875.6875C1.488281-4.398438 1.117188-4.125.859375-3.75c-.25.367187-.375.796875-.375 1.296875 0 .4375.070313.820312.21875 1.140625.144531.324219.347656.59375.609375.8125.257813.210937.566406.367187.921875.46875C2.585938.0703125 2.96875.125 3.375.125c.382813 0 .75-.0546875 1.09375-.15625.34375-.113281.640625-.28125.890625-.5.257813-.21875.460938-.488281.609375-.8125.144531-.320313.21875-.691406.21875-1.109375 0-.519531-.125-.960938-.375-1.328125-.242187-.363281-.617187-.628906-1.125-.796875.351563-.15625.632813-.390625.84375-.703125.21875-.320313.328125-.675781.328125-1.0625 0-.269531-.054687-.535156-.15625-.796875-.09375-.257813-.246094-.488281-.453125-.6875-.199219-.207031-.464844-.375-.796875-.5-.324219-.125-.714844-.1875-1.171875-.1875-.335937 0-.652344.054687-.953125.15625-.292969.09375-.558594.234375-.796875.421875-.230469.179687-.414062.402344-.546875.671875C.847656-6.992188.78125-6.6875.78125-6.34375Zm.78125 3.9375c0-.238281.046875-.457031.140625-.65625.09375-.207031.21875-.378906.375-.515625.164063-.144531.359375-.253906.578125-.328125.21875-.082031.453125-.125.703125-.125.238281 0 .460938.042969.671875.125.21875.085937.40625.199219.5625.34375.164063.148437.289063.320312.375.515625.09375.1875.140625.402344.140625.640625 0 .242187-.042969.460937-.125.65625-.085937.199219-.203125.371094-.359375.515625-.15625.148437-.34375.265625-.5625.359375-.210937.085937-.4375.125-.6875.125-.53125 0-.96875-.144531-1.3125-.4375-.335937-.289063-.5-.695313-.5-1.21875zm0 0"
         id="path1104" />
    </symbol>
    <symbol
       id="L"
       overflow="visible">
      <path
         d="M2.1875-6.203125V-8.0625H1.15625v1.859375H.109375v.90625H1.15625v3.9375c0 .292969.023438.527344.078125.703125.0625.179687.148438.3125.265625.40625.125.09375.28125.1640625.46875.203125C2.15625-.015625 2.378906 0 2.640625 0h.78125v-.90625h-.46875c-.15625 0-.289062-.003906-.390625-.015625C2.457031-.929688 2.378906-.957031 2.328125-1c-.054687-.039063-.089844-.09375-.109375-.15625-.023437-.070313-.03125-.171875-.03125-.296875v-3.84375h1.234375v-.90625zm0 0"
         id="path1107" />
    </symbol>
    <symbol
       id="M"
       overflow="visible">
      <path
         d="M.765625-8.5625V0H1.78125v-3.5c0-.28125.035156-.535156.109375-.765625.082031-.238281.195313-.445313.34375-.625.15625-.175781.347656-.3125.578125-.40625.226563-.101563.5-.15625.8125-.15625.394531 0 .703125.117187.921875.34375.226563.21875.34375.523437.34375.90625V0H5.90625v-4.078125c0-.332031-.039062-.632813-.109375-.90625-.0625-.28125-.179687-.519531-.34375-.71875-.167969-.207031-.390625-.363281-.671875-.46875-.273437-.113281-.609375-.171875-1.015625-.171875-.1875 0-.382812.023437-.578125.0625-.1875.03125-.375.09375-.5625.1875-.179687.085937-.339844.195312-.484375.328125-.136719.125-.246094.28125-.328125.46875h-.03125V-8.5625zm0 0"
         id="path1110" />
    </symbol>
    <symbol
       id="N"
       overflow="visible">
      <path
         d="M.9375-8.5625V0h1.140625v-3.921875h3.9375v-.96875h-3.9375v-2.71875H6.5625V-8.5625zm0 0"
         id="path1113" />
    </symbol>
    <symbol
       id="O"
       overflow="visible">
      <use
         xlink:href="#b"
         id="use1116" />
    </symbol>
    <symbol
       id="P"
       overflow="visible">
      <path
         d="M6.125-.53125v-5.671875h-.96875v.890625h-.015625c-.179687-.34375-.433594-.597656-.765625-.765625-.324219-.175781-.683594-.265625-1.078125-.265625-.53125 0-.984375.105469-1.359375.3125-.367187.199219-.664062.460937-.890625.78125-.21875.3125-.375.664062-.46875 1.046875-.09375.386719-.140625.761719-.140625 1.125 0 .429687.054688.835937.171875 1.21875.113281.375.285156.710937.515625 1 .226563.28125.515625.507812.859375.671875.351563.1679687.757813.25 1.21875.25.394531 0 .769531-.0859375 1.125-.265625.363281-.1875.632813-.472656.8125-.859375h.015625v.421875c0 .34375-.039062.65625-.109375.9375-.0625.289063-.171875.535156-.328125.734375-.148437.207031-.339844.367188-.578125.484375-.230469.113281-.511719.171875-.84375.171875-.167969 0-.34375-.023437-.53125-.0625-.179687-.03125-.34375-.089844-.5-.171875-.15625-.074219-.292969-.179687-.40625-.3125-.105469-.125-.164062-.277344-.171875-.453125H.671875c.019531.332031.109375.613281.265625.84375.15625.238281.351563.425781.59375.5625.25.144531.523438.25.828125.3125.300781.070313.59375.109375.875.109375 1 0 1.726563-.257812 2.1875-.765625.46875-.5.703125-1.261719.703125-2.28125ZM3.265625-.828125c-.335937 0-.617187-.066406-.84375-.203125-.21875-.144531-.398437-.332031-.53125-.5625-.136719-.226563-.234375-.476563-.296875-.75-.054687-.28125-.078125-.5625-.078125-.84375 0-.300781.03125-.585938.09375-.859375.070313-.269531.179688-.507813.328125-.71875.144531-.207031.332031-.375.5625-.5.238281-.125.519531-.1875.84375-.1875.320313 0 .59375.070312.8125.203125.226563.125.410156.296875.546875.515625.144531.210937.25.445312.3125.703125.0625.261719.09375.527344.09375.796875 0 .292969-.039062.585937-.109375.875-.0625.28125-.167969.539062-.3125.765625-.148437.230469-.339844.417969-.578125.5625-.230469.136719-.511719.203125-.84375.203125zm0 0"
         id="path1119" />
    </symbol>
    <symbol
       id="Q"
       overflow="visible">
      <path
         d="M1-1.328125V0h.703125c.007813.09375.003906.195313-.015625.3125-.023437.113281-.0625.222656-.125.328125-.054687.101563-.125.203125-.21875.296875-.085937.09375-.195312.164063-.328125.21875V1.75c.457031-.136719.789063-.371094 1-.703125.207031-.324219.3125-.714844.3125-1.171875v-1.203125zm0 0"
         id="path1122" />
    </symbol>
    <symbol
       id="R"
       overflow="visible">
      <path
         d="m4.3125 0 3.046875-8.5625h-1.1875l-2.46875 7.421875h-.03125L1.21875-8.5625H0L3.015625 0Zm0 0"
         id="path1125" />
    </symbol>
    <symbol
       id="S"
       overflow="visible">
      <path
         d="M.53125-5.5h1.015625c-.011719-.25.015625-.5.078125-.75.0625-.257813.160156-.488281.296875-.6875.132813-.195313.304688-.359375.515625-.484375.21875-.125.472656-.1875.765625-.1875.226563 0 .441406.039062.640625.109375.195313.074219.367188.179687.515625.3125.144531.136719.257813.296875.34375.484375.09375.1875.140625.398437.140625.625 0 .304687-.046875.570312-.140625.796875-.085937.21875-.21875.429687-.40625.625-.179687.1875-.402344.375-.671875.5625-.273437.1875-.589844.390625-.953125.609375-.292969.179687-.574219.371094-.84375.578125-.273437.199219-.515625.429687-.734375.6875-.21875.261719-.402344.574219-.546875.9375C.410156-.925781.320313-.5.28125 0h5.5625v-.90625h-4.375c.050781-.257813.15625-.488281.3125-.6875.15625-.207031.34375-.398438.5625-.578125.21875-.175781.457031-.34375.71875-.5.269531-.15625.535156-.3125.796875-.46875.269531-.164063.523438-.34375.765625-.53125.25-.1875.46875-.390625.65625-.609375.195313-.226563.351563-.488281.46875-.78125.113281-.289063.171875-.625.171875-1 0-.394531-.070312-.742188-.203125-1.046875-.136719-.3125-.328125-.566406-.578125-.765625-.242187-.207031-.523437-.363281-.84375-.46875-.324219-.113281-.667969-.171875-1.03125-.171875-.449219 0-.851562.078125-1.203125.234375-.355469.15625-.652344.371094-.890625.640625C.941406-7.378906.769531-7.0625.65625-6.6875.539063-6.320313.5-5.925781.53125-5.5Zm0 0"
         id="path1128" />
    </symbol>
    <symbol
       id="T"
       overflow="visible">
      <path
         d="M1.609375-2.046875H.59375c.0625.730469.328125 1.277344.796875 1.640625.46875.3554687 1.0625.53125 1.78125.53125 1.03125 0 1.78125-.390625 2.25-1.171875C5.890625-1.835938 6.125-2.96875 6.125-4.4375c0-.8125-.078125-1.476563-.234375-2-.15625-.519531-.371094-.929688-.640625-1.234375-.261719-.3125-.570312-.53125-.921875-.65625-.355469-.125-.730469-.1875-1.125-.1875-.40625 0-.78125.074219-1.125.21875-.34375.136719-.640625.324219-.890625.5625-.25.242187-.445312.53125-.578125.875-.136719.34375-.203125.71875-.203125 1.125 0 .417969.054688.804687.171875 1.15625.113281.34375.285156.640625.515625.890625.226563.25.507813.449219.84375.59375.34375.136719.726563.203125 1.15625.203125.414063 0 .800781-.101563 1.15625-.3125.351563-.21875.625-.503906.8125-.859375l.03125.015625C5.0625-2.929688 4.890625-2.101563 4.578125-1.5625c-.3125.542969-.78125.8125-1.40625.8125-.40625 0-.761719-.109375-1.0625-.328125-.292969-.226563-.460937-.550781-.5-.96875zM4.90625-5.65625c0 .242187-.042969.476562-.125.703125-.074219.230469-.1875.433594-.34375.609375-.148437.167969-.328125.304687-.546875.40625-.21875.09375-.460937.140625-.71875.140625-.25 0-.480469-.046875-.6875-.140625-.199219-.101563-.375-.238281-.53125-.40625-.148437-.164063-.261719-.359375-.34375-.578125-.085937-.21875-.125-.441406-.125-.671875 0-.257813.03125-.507813.09375-.75.0625-.238281.15625-.453125.28125-.640625.132813-.1875.304688-.335938.515625-.453125.21875-.113281.476563-.171875.78125-.171875.289063 0 .539063.054687.75.15625.21875.105469.398438.25.546875.4375.15625.179687.269531.382812.34375.609375.070313.230469.109375.480469.109375.75zm0 0"
         id="path1131" />
    </symbol>
    <symbol
       id="U"
       overflow="visible">
      <path
         d="M2.453125 2.359375h.78125C2.660156 1.441406 2.25.53125 2-.375c-.242187-.90625-.359375-1.859375-.359375-2.859375 0-.988281.117188-1.929688.359375-2.828125.238281-.894531.648438-1.796875 1.234375-2.703125h-.78125c-.625.824219-1.101562 1.714844-1.421875 2.671875C.71875-5.132813.5625-4.179688.5625-3.234375c0 .523437.039063 1.023437.125 1.5.09375.480469.21875.949219.375 1.40625.164063.457031.363281.90625.59375 1.34375.238281.445313.503906.894531.796875 1.34375zm0 0"
         id="path1134" />
    </symbol>
    <symbol
       id="V"
       overflow="visible">
      <path
         d="M6.109375-7.484375v-.875H.59375v.953125H5.0625c-.449219.46875-.867187.984375-1.25 1.546875-.386719.5625-.730469 1.164062-1.03125 1.796875-.292969.625-.53125 1.28125-.71875 1.96875C1.875-1.414063 1.753906-.71875 1.703125 0H2.84375c.039063-.664063.148438-1.347656.328125-2.046875.1875-.707031.425781-1.390625.71875-2.046875.289063-.664063.625-1.289063 1-1.875.375-.59375.78125-1.097656 1.21875-1.515625zm0 0"
         id="path1137" />
    </symbol>
    <symbol
       id="W"
       overflow="visible">
      <path
         d="M2.609375-4.859375V-4c.195313-.019531.40625-.03125.625-.03125.25 0 .484375.039062.703125.109375.21875.0625.40625.167969.5625.3125.164063.136719.296875.308594.390625.515625.101563.199219.15625.429687.15625.6875 0 .261719-.054687.496094-.15625.703125-.105469.199219-.242187.371094-.40625.515625-.167969.136719-.367187.246094-.59375.328125C3.671875-.785156 3.4375-.75 3.1875-.75c-.585937 0-1.027344-.171875-1.328125-.515625C1.554688-1.617188 1.394531-2.070313 1.375-2.625H.359375c-.011719.4375.050781.828125.1875 1.171875.132813.34375.320313.636719.5625.875.25.230469.550781.40625.90625.53125C2.367188.0664063 2.757813.125 3.1875.125c.40625 0 .785156-.0546875 1.140625-.15625.351563-.101563.660156-.265625.921875-.484375.269531-.21875.484375-.488281.640625-.8125.15625-.320313.234375-.695313.234375-1.125 0-.507813-.132812-.953125-.390625-1.328125-.25-.375-.636719-.617188-1.15625-.734375v-.015625c.34375-.15625.625-.378906.84375-.671875.226563-.300781.34375-.644531.34375-1.03125 0-.382813-.070312-.722656-.203125-1.015625-.136719-.289063-.320312-.523438-.546875-.703125-.230469-.1875-.507812-.328125-.828125-.421875-.3125-.09375-.652344-.140625-1.015625-.140625-.429687 0-.804687.074219-1.125.21875-.324219.136719-.59375.324219-.8125.5625-.21875.242187-.386719.527344-.5.859375-.117187.335937-.179687.703125-.1875 1.109375H1.5625c0-.238281.03125-.46875.09375-.6875.0625-.226563.15625-.425781.28125-.59375.132813-.175781.304688-.3125.515625-.40625.207031-.101563.445313-.15625.71875-.15625.425781 0 .785156.117187 1.078125.34375.289063.230469.4375.574219.4375 1.03125 0 .21875-.046875.417969-.140625.59375-.085937.179687-.203125.324219-.359375.4375-.148437.117187-.320312.203125-.515625.265625-.1875.0625-.390625.09375-.609375.09375h-.34375c-.03125 0-.070312-.00391-.109375-.015625zm0 0"
         id="path1140" />
    </symbol>
    <symbol
       id="X"
       overflow="visible">
      <path
         d="M-.109375 2.359375H.65625C1.28125 1.535156 1.75.648438 2.0625-.296875c.320313-.957031.484375-1.910156.484375-2.859375 0-.53125-.046875-1.035156-.140625-1.515625-.085937-.476563-.210937-.945313-.375-1.40625-.167969-.457031-.367187-.90625-.59375-1.34375-.230469-.445313-.492187-.894531-.78125-1.34375h-.765625c.5625.917969.960938 1.828125 1.203125 2.734375.25.90625.375 1.867187.375 2.875 0 .980469-.121094 1.921875-.359375 2.828125-.242187.894531-.648437 1.789063-1.21875 2.6875zm0 0"
         id="path1143" />
    </symbol>
    <symbol
       id="Y"
       overflow="visible">
      <path
         d="M4.96875-6.34375h1.015625c-.0625-.695313-.304687-1.234375-.71875-1.609375-.417969-.375-.976562-.5625-1.671875-.5625-.617187 0-1.125.132812-1.53125.390625-.398437.261719-.714844.605469-.953125 1.03125-.242187.417969-.414062.902344-.515625 1.453125C.5-5.097656.453125-4.535156.453125-3.953125c0 .449219.03125.914062.09375 1.390625.070313.480469.210938.921875.421875 1.328125.207031.398437.503906.726562.890625.984375.382813.25.894531.375 1.53125.375.53125 0 .976563-.0898437 1.34375-.265625.363281-.175781.65625-.398438.875-.671875.21875-.28125.375-.585938.46875-.921875.101563-.34375.15625-.671875.15625-.984375 0-.382813-.0625-.742188-.1875-1.078125-.117187-.34375-.289062-.632813-.515625-.875-.21875-.25-.492187-.441406-.8125-.578125-.324219-.144531-.6875-.21875-1.09375-.21875-.46875 0-.882812.089844-1.234375.265625-.355469.179687-.652344.460937-.890625.84375L1.46875-4.375c.00781-.332031.039063-.6875.09375-1.0625.0625-.375.164063-.722656.3125-1.046875.144531-.320313.347656-.585938.609375-.796875.269531-.21875.625-.328125 1.0625-.328125.40625 0 .726563.121094.96875.359375.25.230469.398438.53125.453125.90625zM3.4375-4.578125c.28125 0 .53125.054687.75.15625.21875.105469.394531.246094.53125.421875.144531.167969.25.371094.3125.609375.070313.242187.109375.492187.109375.75 0 .25-.039062.492187-.109375.71875-.074219.230469-.183594.433594-.328125.609375-.148437.167969-.324219.304687-.53125.40625C3.960938-.800781 3.71875-.75 3.4375-.75s-.53125-.050781-.75-.15625c-.21875-.101563-.40625-.238281-.5625-.40625-.148437-.164063-.261719-.363281-.34375-.59375-.074219-.226563-.109375-.476563-.109375-.75 0-.257813.035156-.503906.109375-.734375.070313-.238281.1875-.441406.34375-.609375.15625-.175781.335938-.316406.546875-.421875.21875-.101563.472656-.15625.765625-.15625Zm0 0"
         id="path1146" />
    </symbol>
    <symbol
       id="Z"
       overflow="visible">
      <path
         d="M4.0625-2.890625H1.21875L4.046875-7.0625H4.0625zm.96875 0v-5.625h-.8125L.34375-2.96875v.984375H4.0625V0h.96875v-1.984375H6.1875v-.90625zm0 0"
         id="path1149" />
    </symbol>
    <symbol
       id="aa"
       overflow="visible">
      <path
         d="M.59375-3.8125v.953125H4.0625V-3.8125zm0 0"
         id="path1152" />
    </symbol>
    <symbol
       id="ab"
       overflow="visible">
      <path
         d="M.921875-8.5625V0H2v-6.875h.03125L6.5 0h1.25v-8.5625H6.671875v6.9375h-.03125l-4.5-6.9375zm0 0"
         id="path1155" />
    </symbol>
    <symbol
       id="ac"
       overflow="visible">
      <path
         d="M.9375-8.5625V0h5.953125v-.953125h-4.8125v-2.96875H6.53125v-.96875H2.078125v-2.71875h4.78125V-8.5625zm0 0"
         id="path1158" />
    </symbol>
    <symbol
       id="ad"
       overflow="visible">
      <use
         xlink:href="#a"
         id="use1161" />
    </symbol>
    <symbol
       id="ae"
       overflow="visible">
      <path
         d="M5.890625-6.0625H6.96875c-.011719-.46875-.101562-.867188-.265625-1.203125-.167969-.34375-.390625-.625-.671875-.84375-.28125-.226563-.617187-.394531-1-.5-.375-.101563-.78125-.15625-1.21875-.15625-.386719 0-.765625.054687-1.140625.15625-.375.09375-.710937.246094-1 .453125-.292969.199219-.527344.460937-.703125.78125-.179687.3125-.265625.683594-.265625 1.109375 0 .398437.078125.726562.234375.984375.15625.261719.363281.476562.625.640625.257813.15625.550781.289062.875.390625.332031.09375.664063.183594 1 .265625.34375.074219.675781.148437 1 .21875.332031.074219.628906.167969.890625.28125.257813.117187.46875.265625.625.453125.15625.179687.234375.417969.234375.71875 0 .3125-.0625.570312-.1875.765625-.125.199219-.292969.355469-.5.46875-.210937.117187-.445312.199219-.703125.25C4.535156-.773438 4.273438-.75 4.015625-.75c-.3125 0-.625-.039063-.9375-.125-.304687-.082031-.570312-.207031-.796875-.375-.230469-.164063-.414062-.378906-.546875-.640625-.136719-.257813-.203125-.566406-.203125-.921875H.4375c0 .511719.09375.960937.28125 1.34375.195313.375.457031.6875.78125.9375.320313.242187.695313.417969 1.125.53125.425781.125.878906.1875 1.359375.1875.394531 0 .789063-.046875 1.1875-.140625.394531-.0820313.75-.226563 1.0625-.4375.320313-.207031.582031-.472656.78125-.796875.207031-.320313.3125-.710938.3125-1.171875 0-.414063-.078125-.765625-.234375-1.046875s-.367187-.507813-.625-.6875c-.261719-.1875-.558594-.332031-.890625-.4375-.324219-.113281-.65625-.207031-1-.28125-.335937-.082031-.667969-.15625-1-.21875-.324219-.070313-.617187-.160156-.875-.265625-.261719-.101563-.46875-.238281-.625-.40625-.15625-.164063-.234375-.378906-.234375-.640625 0-.28125.050781-.515625.15625-.703125.113281-.1875.257813-.335938.4375-.453125.1875-.113281.394531-.191406.625-.234375.226563-.050781.460938-.078125.703125-.078125.59375 0 1.078125.140625 1.453125.421875.382813.273437.609375.714844.671875 1.328125zm0 0"
         id="path1164" />
    </symbol>
    <symbol
       id="af"
       overflow="visible">
      <path
         d="M2.078125-4.46875v-3.140625H4.3125c.644531 0 1.117188.136719 1.421875.40625.300781.273437.453125.664062.453125 1.171875 0 .511719-.152344.902344-.453125 1.171875-.304687.273437-.777344.402344-1.421875.390625ZM.9375-8.5625V0h1.140625v-3.5H4.6875c.863281.011719 1.515625-.207031 1.953125-.65625.445313-.457031.671875-1.082031.671875-1.875 0-.800781-.226562-1.421875-.671875-1.859375-.4375-.445313-1.089844-.671875-1.953125-.671875Zm0 0"
         id="path1167" />
    </symbol>
    <symbol
       id="ag"
       overflow="visible">
      <use
         xlink:href="#b"
         id="use1170" />
    </symbol>
    <symbol
       id="ah"
       overflow="visible">
      <path
         d="M.9375-8.5625V0h1.140625v-3.65625h2.78125c.28125 0 .503906.042969.671875.125.164063.085937.300781.199219.40625.34375.101563.136719.175781.296875.21875.484375.050781.1875.09375.386719.125.59375.039063.210937.066406.421875.078125.640625.007813.210937.015625.40625.015625.59375.007813.1875.03125.359375.0625.515625S6.519531-.0820313 6.59375 0H7.875c-.125-.144531-.21875-.3125-.28125-.5-.054687-.1875-.09375-.382813-.125-.59375-.03125-.207031-.054687-.414063-.0625-.625-.011719-.21875-.023437-.429688-.03125-.640625-.03125-.207031-.070312-.40625-.109375-.59375-.042969-.195313-.109375-.375-.203125-.53125s-.21875-.289063-.375-.40625c-.15625-.113281-.359375-.191406-.609375-.234375v-.03125c.519531-.144531.898438-.410156 1.140625-.796875.238281-.394531.359375-.851563.359375-1.375 0-.695313-.234375-1.242188-.703125-1.640625-.460937-.394531-1.09375-.59375-1.90625-.59375ZM4.453125-4.625h-2.375v-2.984375H4.90625c.539063 0 .929688.136719 1.171875.40625.238281.273437.359375.625.359375 1.0625 0 .3125-.058594.570312-.171875.765625-.105469.1875-.25.34375-.4375.46875-.179687.117187-.386719.195312-.625.234375-.242187.03125-.492187.046875-.75.046875zm0 0"
         id="path1173" />
    </symbol>
    <symbol
       id="ai"
       overflow="visible">
      <path
         d="M.953125-8.5625V0h1.09375v-7.125H2.0625L4.734375 0h.984375l2.671875-7.125h.015625V0h1.078125v-8.5625H7.9375L5.21875-1.375 2.515625-8.5625zm0 0"
         id="path1176" />
    </symbol>
    <symbol
       id="aj"
       overflow="visible">
      <path
         d="M7.34375-1.0625 7.640625 0h.71875v-4.515625h-3.75v.96875H7.34375c.019531.386719-.03125.75-.15625 1.09375-.117187.34375-.292969.640625-.53125.890625-.242187.25-.53125.449219-.875.59375C5.4375-.820313 5.039063-.75 4.59375-.75c-.480469 0-.902344-.09375-1.265625-.28125-.367187-.1875-.671875-.4375-.921875-.75-.242187-.320313-.429687-.6875-.5625-1.09375-.125-.414063-.1875-.847656-.1875-1.296875 0-.457031.050781-.90625.15625-1.34375.113281-.4375.289063-.820313.53125-1.15625.238281-.34375.539063-.617188.90625-.828125.375-.207031.820313-.3125 1.34375-.3125.320313 0 .625.042969.90625.125.28125.074219.53125.1875.75.34375.226563.148437.421875.339844.578125.578125.15625.230469.257813.511719.3125.84375H8.28125c-.085937-.507813-.234375-.941406-.453125-1.296875-.21875-.351563-.492187-.644531-.8125-.875-.324219-.238281-.695312-.410156-1.109375-.515625-.40625-.101563-.84375-.15625-1.3125-.15625-.679687 0-1.273437.125-1.78125.375-.511719.25-.9375.589844-1.28125 1.015625-.335937.417969-.589844.914062-.765625 1.484375-.167969.5625-.25 1.15625-.25 1.78125 0 .554687.085938 1.089844.265625 1.609375.1875.523437.457031.984375.8125 1.390625.351563.398437.78125.714844 1.28125.953125.507813.2265625 1.082031.34375 1.71875.34375.507813 0 1.007813-.09375 1.5-.28125.5-.195313.914063-.519531 1.25-.96875zm0 0"
         id="path1179" />
    </symbol>
    <symbol
       id="ak"
       overflow="visible">
      <path
         d="M.265625-.953125V0h6.8125v-.953125H1.625l5.3125-6.65625V-8.5625H.671875v.953125H5.59375zm0 0"
         id="path1182" />
    </symbol>
    <symbol
       id="al"
       overflow="visible">
      <path
         d="M.984375-8.5625V0H2.125v-8.5625zm0 0"
         id="path1185" />
    </symbol>
  </defs>
  <g
     inkscape:label="Reuters"
     inkscape:groupmode="layer"
     id="layer1"
     transform="translate(-32.153873,-65.249528)"
     style="display:none">
    <g
       id="g995"
       transform="matrix(0.26458333,0,0,0.26458333,32.153873,65.249528)">
      <path
         class="st0"
         d="m 132.3,79 c -2.4,0 -4.6,1.2 -5.8,3.2 -1.2,2 -1.2,4.6 0,6.6 1.2,2 3.4,3.3 5.8,3.2 3.6,-0.1 6.4,-3 6.4,-6.5 0.1,-3.5 -2.8,-6.4 -6.4,-6.5 z"
         id="path4"
         style="fill:#fe9101;fill-opacity:1" />
      <path
         class="st0"
         d="m 124,96 c -3.1,0 -5.6,2.5 -5.6,5.5 0,3.1 2.5,5.6 5.6,5.6 3.1,0 5.6,-2.5 5.6,-5.6 0,-3 -2.5,-5.5 -5.6,-5.5 z"
         id="path6"
         style="fill:#fe9101;fill-opacity:1" />
      <circle
         transform="matrix(0.9994,-0.03327866,0.03327866,0.9994,-3.7351,3.7796)"
         class="st0"
         cx="111.7"
         cy="114.1"
         id="ellipse8"
         style="fill:#fe9101;fill-opacity:1"
         r="4.8000002" />
      <path
         class="st0"
         d="m 97.8,118.3 c -2.2,0 -3.9,1.7 -3.9,3.9 0,2.2 1.7,3.9 3.9,3.9 2.2,0 3.9,-1.7 3.9,-3.9 0,-2.2 -1.7,-3.9 -3.9,-3.9 z"
         id="path10"
         style="fill:#fe9101;fill-opacity:1" />
      <path
         class="st0"
         d="m 84.2,123 c -1.8,0 -3.3,1.5 -3.3,3.3 0,1.8 1.5,3.3 3.3,3.3 1.8,0 3.3,-1.5 3.3,-3.3 0.1,-1.8 -1.4,-3.3 -3.3,-3.3 z"
         id="path12"
         style="fill:#fe9101;fill-opacity:1" />
      <path
         class="st0"
         d="m 71.5,124.9 c -1.6,0 -2.9,1.3 -2.9,2.9 0,1.6 1.3,2.9 2.9,2.9 1.6,0 2.9,-1.3 2.9,-2.9 -0.1,-1.6 -1.4,-2.9 -2.9,-2.9 z"
         id="path14"
         style="fill:#fe9101;fill-opacity:1" />
      <path
         class="st0"
         d="m 58.7,123 c -1.8,0 -3.3,1.5 -3.3,3.3 0,1.8 1.5,3.3 3.3,3.3 1.8,0 3.3,-1.5 3.3,-3.3 0,-1.8 -1.5,-3.3 -3.3,-3.3 z"
         id="path16"
         style="fill:#fe9101;fill-opacity:1" />
      <path
         class="st0"
         d="m 45.1,118.2 c -1.4,0 -2.7,0.7 -3.4,1.9 -0.7,1.2 -0.7,2.7 0,3.9 0.7,1.2 2,1.9 3.4,1.9 2.1,0 3.9,-1.7 3.9,-3.9 -0.1,-2 -1.8,-3.7 -3.9,-3.8 z"
         id="path18"
         style="fill:#fe9101;fill-opacity:1" />
      <path
         class="st0"
         d="m 31.2,109.3 c -1.7,0 -3.3,0.9 -4.2,2.4 -0.9,1.5 -0.9,3.3 0,4.8 0.9,1.5 2.4,2.4 4.2,2.4 2.6,0 4.8,-2.1 4.8,-4.8 0,-2.6 -2.1,-4.8 -4.8,-4.8 z"
         id="path20"
         style="fill:#fe9101;fill-opacity:1" />
      <path
         class="st0"
         d="m 18.9,96 c -3.1,0 -5.6,2.5 -5.6,5.6 0,3.1 2.5,5.6 5.6,5.6 3.1,0 5.6,-2.5 5.6,-5.6 C 24.4,98.5 22,96 18.9,96 Z"
         id="path22"
         style="fill:#fe9101;fill-opacity:1" />
      <path
         class="st0"
         d="M 10.6,79 C 8.2,78.9 6,80.2 4.8,82.2 c -1.2,2 -1.2,4.6 0,6.6 1.2,2 3.4,3.3 5.8,3.2 C 14.2,91.9 17,89 17,85.5 17,82 14.1,79.1 10.6,79 Z"
         id="path24"
         style="fill:#fe9101;fill-opacity:1" />
      <path
         class="st0"
         d="M 7.6,57.8 C 3.4,57.8 0,61.2 0,65.4 0,69.6 3.4,73 7.6,73 c 4.2,0 7.6,-3.4 7.6,-7.6 -0.1,-4.2 -3.4,-7.6 -7.6,-7.6 z"
         id="path26"
         style="fill:#fe9101;fill-opacity:1" />
      <path
         class="st0"
         d="m 10.6,38.6 c -2.4,0 -4.6,1.2 -5.8,3.2 -1.2,2 -1.2,4.6 0,6.6 1.2,2 3.4,3.3 5.8,3.2 3.6,-0.1 6.4,-3 6.4,-6.5 0,-3.5 -2.9,-6.4 -6.4,-6.5 z"
         id="path28"
         style="fill:#fe9101;fill-opacity:1" />
      <path
         class="st0"
         d="m 18.9,23.5 c -2,0 -3.9,1 -4.9,2.8 -1,1.7 -1,3.9 0,5.6 1,1.7 2.9,2.8 4.9,2.8 3,-0.1 5.5,-2.5 5.5,-5.6 -0.1,-3 -2.5,-5.5 -5.5,-5.6 z"
         id="path30"
         style="fill:#fe9101;fill-opacity:1" />
      <path
         class="st0"
         d="m 31.2,11.7 c -2.6,0 -4.8,2.1 -4.8,4.8 0,2.6 2.1,4.8 4.8,4.8 2.6,0 4.8,-2.1 4.8,-4.8 0,-2.6 -2.1,-4.8 -4.8,-4.8 z"
         id="path32"
         style="fill:#fe9101;fill-opacity:1" />
      <path
         class="st0"
         d="m 45.1,4.6 c -2.1,0 -3.9,1.7 -3.9,3.9 0,2.1 1.7,3.9 3.9,3.9 2.1,0 3.9,-1.7 3.9,-3.9 C 48.9,6.4 47.2,4.6 45.1,4.6 Z"
         id="path34"
         style="fill:#fe9101;fill-opacity:1" />
      <path
         class="st0"
         d="m 58.7,1 c -1.9,0 -3.4,1.5 -3.4,3.4 0,1.9 1.5,3.4 3.4,3.4 C 60.5,7.8 62,6.3 62,4.5 61.9,2.5 60.5,1 58.7,1 Z"
         id="path36"
         style="fill:#fe9101;fill-opacity:1" />
      <path
         class="st0"
         d="m 71.4,0 c -1.6,0 -2.9,1.3 -2.9,2.9 0,1.6 1.3,2.9 2.9,2.9 1.6,0 2.9,-1.3 2.9,-2.9 C 74.3,1.3 73,0 71.4,0 Z"
         id="path38"
         style="fill:#fe9101;fill-opacity:1" />
      <path
         class="st0"
         d="m 84.2,1 c -1.8,0 -3.3,1.5 -3.3,3.3 0,1.8 1.5,3.3 3.3,3.3 1.8,0 3.3,-1.5 3.3,-3.3 C 87.6,2.5 86.1,1 84.2,1 Z"
         id="path40"
         style="fill:#fe9101;fill-opacity:1" />
      <path
         class="st0"
         d="m 97.8,4.6 c -1.4,0 -2.7,0.7 -3.4,1.9 -0.7,1.2 -0.7,2.7 0,3.9 0.7,1.2 2,1.9 3.4,1.9 2.1,0 3.9,-1.7 3.9,-3.9 0,-2.2 -1.7,-3.8 -3.9,-3.8 z"
         id="path42"
         style="fill:#fe9101;fill-opacity:1" />
      <path
         class="st0"
         d="m 111.7,11.8 c -2.6,0 -4.8,2.1 -4.8,4.8 0,2.6 2.1,4.8 4.8,4.8 2.6,0 4.8,-2.1 4.8,-4.8 0,-2.7 -2.2,-4.8 -4.8,-4.8 z"
         id="path44"
         style="fill:#fe9101;fill-opacity:1" />
      <path
         class="st0"
         d="m 124,23.5 c -3.1,0 -5.6,2.5 -5.6,5.6 0,3.1 2.5,5.6 5.6,5.6 3.1,0 5.6,-2.5 5.6,-5.6 0,-3.1 -2.5,-5.6 -5.6,-5.6 z"
         id="path46"
         style="fill:#fe9101;fill-opacity:1" />
      <path
         class="st0"
         d="m 132.3,38.6 c -2.4,0 -4.6,1.2 -5.8,3.2 -1.2,2 -1.2,4.6 0,6.6 1.2,2 3.4,3.3 5.8,3.2 3.6,-0.1 6.4,-3 6.4,-6.5 0,-3.6 -2.8,-6.5 -6.4,-6.5 z"
         id="path48"
         style="fill:#fe9101;fill-opacity:1" />
      <path
         class="st0"
         d="m 102.3,75.3 c -1.1,0 -2.1,0.5 -2.6,1.4 -0.5,0.9 -0.5,2.1 0,3 0.5,0.9 1.5,1.5 2.6,1.4 1.6,-0.1 2.8,-1.4 2.8,-2.9 0.1,-1.5 -1.2,-2.8 -2.8,-2.9 z"
         id="path50"
         style="fill:#fe9101;fill-opacity:1" />
      <path
         class="st0"
         d="m 95,86.2 c -1.1,0 -2.1,0.5 -2.6,1.4 -0.5,0.9 -0.5,2.1 0,3 0.5,0.9 1.6,1.5 2.6,1.4 1.6,-0.1 2.8,-1.4 2.8,-2.9 0,-1.5 -1.2,-2.8 -2.8,-2.9 z"
         id="path52"
         style="fill:#fe9101;fill-opacity:1" />
      <path
         class="st0"
         d="m 84.1,93.2 c -1.1,0 -2.2,0.6 -2.8,1.6 -0.6,1 -0.6,2.2 0,3.2 0.6,1 1.6,1.6 2.8,1.6 1.8,0 3.2,-1.4 3.2,-3.2 0,-1.8 -1.4,-3.2 -3.2,-3.2 z"
         id="path54"
         style="fill:#fe9101;fill-opacity:1" />
      <path
         class="st0"
         d="m 71.3,95.1 c -2.4,0 -4.3,1.9 -4.3,4.3 0,2.4 1.9,4.3 4.3,4.3 2.4,0 4.3,-1.9 4.3,-4.3 -0.1,-2.4 -2,-4.3 -4.3,-4.3 z"
         id="path56"
         style="fill:#fe9101;fill-opacity:1" />
      <path
         class="st0"
         d="m 58.4,92.5 c -2.7,0 -4.9,2.2 -4.9,4.9 0,2.7 2.2,4.9 4.9,4.9 2.7,0 4.9,-2.2 4.9,-4.9 0,-2.7 -2.2,-4.9 -4.9,-4.9 z"
         id="path58"
         style="fill:#fe9101;fill-opacity:1" />
      <path
         class="st0"
         d="m 46.8,84.3 c -3,0 -5.4,2.4 -5.4,5.4 0,3 2.4,5.4 5.4,5.4 3,0 5.4,-2.4 5.4,-5.4 0,-3 -2.4,-5.4 -5.4,-5.4 z"
         id="path60"
         style="fill:#fe9101;fill-opacity:1" />
      <path
         class="st0"
         d="m 39.1,73.3 c -2.5,0 -4.5,2 -4.5,4.5 0,2.5 2,4.5 4.5,4.5 2.5,0 4.5,-2 4.5,-4.5 0.1,-2.4 -2,-4.5 -4.5,-4.5 z"
         id="path62"
         style="fill:#fe9101;fill-opacity:1" />
      <path
         class="st0"
         d="m 37.3,61.3 c -1.9,0 -3.5,1.6 -3.5,3.5 0,1.9 1.6,3.5 3.5,3.5 1.9,0 3.5,-1.6 3.5,-3.5 0,-2 -1.5,-3.5 -3.5,-3.5 z"
         id="path64"
         style="fill:#fe9101;fill-opacity:1" />
      <path
         class="st0"
         d="m 40.4,49.5 c -1.6,0 -2.9,1.3 -2.9,2.9 0,1.6 1.3,2.9 2.9,2.9 1.6,0 2.9,-1.3 2.9,-2.9 0.1,-1.6 -1.3,-2.9 -2.9,-2.9 z"
         id="path66"
         style="fill:#fe9101;fill-opacity:1" />
      <path
         class="st0"
         d="m 47.8,38.7 c -1.1,0 -2.1,0.5 -2.6,1.4 -0.5,0.9 -0.5,2.1 0,3 0.5,0.9 1.6,1.5 2.6,1.4 1.6,0 2.9,-1.3 2.9,-2.9 -0.1,-1.6 -1.4,-2.9 -2.9,-2.9 z"
         id="path68"
         style="fill:#fe9101;fill-opacity:1" />
      <path
         class="st0"
         d="m 58.6,31.1 c -1.8,0 -3.2,1.4 -3.2,3.2 0,1.8 1.4,3.2 3.2,3.2 1.8,0 3.2,-1.4 3.2,-3.2 0,-1.7 -1.4,-3.2 -3.2,-3.2 z"
         id="path70"
         style="fill:#fe9101;fill-opacity:1" />
      <circle
         transform="matrix(0.03837692,-0.9993,0.9993,0.03837692,37.4585,101.4962)"
         class="st0"
         cx="71.5"
         cy="31.299999"
         id="ellipse72"
         style="fill:#fe9101;fill-opacity:1"
         r="4.3000002" />
      <path
         class="st0"
         d="m 84.3,28.4 c -2.7,0 -4.9,2.2 -4.9,4.9 0,2.7 2.2,4.9 4.9,4.9 2.7,0 4.9,-2.2 4.9,-4.9 0,-2.7 -2.2,-4.9 -4.9,-4.9 z"
         id="path74"
         style="fill:#fe9101;fill-opacity:1" />
      <path
         class="st0"
         d="m 95.9,35.6 c -3,0 -5.4,2.4 -5.4,5.4 0,3 2.4,5.4 5.4,5.4 3,0 5.4,-2.4 5.4,-5.4 0,-3 -2.4,-5.4 -5.4,-5.4 z"
         id="path76"
         style="fill:#fe9101;fill-opacity:1" />
      <path
         class="st0"
         d="m 103.6,48.3 c -2.5,0 -4.5,2 -4.5,4.5 0,2.5 2,4.5 4.5,4.5 2.5,0 4.5,-2 4.5,-4.5 0,-2.5 -2,-4.5 -4.5,-4.5 z"
         id="path78"
         style="fill:#fe9101;fill-opacity:1" />
      <circle
         class="st0"
         cx="91.800003"
         cy="70.900002"
         r="2.7"
         id="circle80"
         style="fill:#fe9101;fill-opacity:1" />
      <path
         class="st0"
         d="m 86.5,76.6 c -2.2,0 -4,1.8 -4,4 0,2.2 1.8,4 4,4 2.2,0 4,-1.8 4,-4 0.1,-2.2 -1.7,-4 -4,-4 z"
         id="path82"
         style="fill:#fe9101;fill-opacity:1" />
      <path
         class="st0"
         d="m 76.2,82 c -2.3,0 -4.2,1.9 -4.2,4.2 0,2.3 1.9,4.2 4.2,4.2 2.3,0 4.2,-1.9 4.2,-4.2 0,-2.3 -1.9,-4.2 -4.2,-4.2 z"
         id="path84"
         style="fill:#fe9101;fill-opacity:1" />
      <path
         class="st0"
         d="m 64,81.7 c -1.3,0 -2.6,0.7 -3.2,1.9 -0.7,1.2 -0.7,2.6 0,3.7 0.7,1.2 1.9,1.9 3.2,1.9 2.1,0 3.7,-1.7 3.7,-3.7 0.1,-2.1 -1.6,-3.8 -3.7,-3.8 z"
         id="path86"
         style="fill:#fe9101;fill-opacity:1" />
      <path
         class="st0"
         d="m 55,75.6 c -1.5,0 -2.7,1.2 -2.7,2.7 0,1.5 1.2,2.7 2.7,2.7 1.5,0 2.7,-1.2 2.7,-2.7 0.1,-1.4 -1.2,-2.7 -2.7,-2.7 z"
         id="path88"
         style="fill:#fe9101;fill-opacity:1" />
      <path
         class="st0"
         d="m 51.4,67.7 c -1.1,0 -2,0.9 -2,2 0,1.1 0.9,2 2,2 1.1,0 2,-0.9 2,-2 0,-1.1 -0.9,-2 -2,-2 z"
         id="path90"
         style="fill:#fe9101;fill-opacity:1" />
      <path
         class="st0"
         d="m 51.2,57.4 c -1.5,0 -2.7,1.2 -2.7,2.7 0,1.5 1.2,2.7 2.7,2.7 1.5,0 2.7,-1.2 2.7,-2.7 0,-1.5 -1.2,-2.7 -2.7,-2.7 z"
         id="path92"
         style="fill:#fe9101;fill-opacity:1" />
      <path
         class="st0"
         d="m 56.5,46.3 c -2.2,0 -4,1.8 -4,4 0,2.2 1.8,4 4,4 2.2,0 4,-1.8 4,-4 0,-2.2 -1.8,-4 -4,-4 z"
         id="path94"
         style="fill:#fe9101;fill-opacity:1" />
      <path
         class="st0"
         d="m 66.8,40.5 c -2.3,0 -4.2,1.9 -4.2,4.2 0,2.3 1.9,4.2 4.2,4.2 2.3,0 4.2,-1.9 4.2,-4.2 0,-2.3 -1.9,-4.2 -4.2,-4.2 z"
         id="path96"
         style="fill:#fe9101;fill-opacity:1" />
      <path
         class="st0"
         d="m 79,41.8 c -1.4,0 -2.6,0.7 -3.3,1.8 -0.7,1.2 -0.7,2.6 0,3.8 0.7,1.2 2,1.9 3.3,1.8 2,-0.1 3.6,-1.7 3.6,-3.7 0,-2 -1.6,-3.6 -3.6,-3.7 z"
         id="path98"
         style="fill:#fe9101;fill-opacity:1" />
      <path
         class="st0"
         d="m 87.9,49.8 c -1.5,0 -2.7,1.2 -2.7,2.7 0,1.5 1.2,2.7 2.7,2.7 1.5,0 2.7,-1.2 2.7,-2.7 0.1,-1.5 -1.1,-2.7 -2.7,-2.7 z"
         id="path100"
         style="fill:#fe9101;fill-opacity:1" />
      <path
         class="st0"
         d="m 91.7,59.3 c -1.1,0 -2,0.9 -2,2 0,1.1 0.9,2 2,2 1.1,0 2,-0.9 2,-2 0,-1.1 -0.9,-2 -2,-2 z"
         id="path102"
         style="fill:#fe9101;fill-opacity:1" />
      <path
         class="st0"
         d="m 105.4,62.4 c -1.9,0 -3.5,1.6 -3.5,3.5 0,1.9 1.6,3.5 3.5,3.5 1.9,0 3.5,-1.6 3.5,-3.5 0,-1.9 -1.6,-3.5 -3.5,-3.5 z"
         id="path104"
         style="fill:#fe9101;fill-opacity:1" />
      <path
         class="st0"
         d="m 119.9,66.7 c -2.1,0 -3.7,1.7 -3.7,3.7 0,2.1 1.7,3.7 3.7,3.7 2.1,0 3.7,-1.7 3.7,-3.7 0,-2 -1.6,-3.7 -3.7,-3.7 z"
         id="path106"
         style="fill:#fe9101;fill-opacity:1" />
      <path
         class="st0"
         d="m 116.2,79.8 c -1.9,0 -3.5,1.6 -3.5,3.5 0,1.9 1.6,3.5 3.5,3.5 1.9,0 3.5,-1.6 3.5,-3.5 0,-1.9 -1.5,-3.5 -3.5,-3.5 z"
         id="path108"
         style="fill:#fe9101;fill-opacity:1" />
      <path
         class="st0"
         d="m 109.9,90.8 c -1.6,0 -3,1.3 -3,3 0,1.6 1.3,3 3,3 1.6,0 2.9,-1.4 2.9,-3 0,-1.6 -1.3,-2.9 -2.9,-3 z"
         id="path110"
         style="fill:#fe9101;fill-opacity:1" />
      <path
         class="st0"
         d="m 102.3,99 c -0.9,0 -1.8,0.5 -2.3,1.3 -0.5,0.8 -0.5,1.8 0,2.6 0.5,0.8 1.3,1.3 2.3,1.3 1.4,0 2.6,-1.1 2.6,-2.6 0,-1.4 -1.2,-2.6 -2.6,-2.6 z"
         id="path112"
         style="fill:#fe9101;fill-opacity:1" />
      <path
         class="st0"
         d="m 94.3,105 c -1.2,0 -2.2,1 -2.2,2.2 0,1.2 1,2.2 2.2,2.2 1.2,0 2.2,-1 2.2,-2.2 0,-1.2 -1,-2.2 -2.2,-2.2 z"
         id="path114"
         style="fill:#fe9101;fill-opacity:1" />
      <path
         class="st0"
         d="m 85.2,108.4 c -1.4,0 -2.6,1.1 -2.6,2.6 0,1.4 1.1,2.6 2.6,2.6 1.4,0 2.6,-1.1 2.6,-2.6 -0.1,-1.5 -1.2,-2.6 -2.6,-2.6 z"
         id="path116"
         style="fill:#fe9101;fill-opacity:1" />
      <path
         class="st0"
         d="m 74.5,110.1 c -1.6,0 -3,1.3 -3,3 0,1.6 1.3,3 3,3 1.6,0 3,-1.3 3,-3 -0.1,-1.7 -1.4,-3 -3,-3 z"
         id="path118"
         style="fill:#fe9101;fill-opacity:1" />
      <path
         class="st0"
         d="m 62.3,108.9 c -2.1,0 -3.8,1.7 -3.8,3.8 0,2.1 1.7,3.8 3.8,3.8 2.1,0 3.8,-1.7 3.8,-3.8 0,-2.1 -1.7,-3.8 -3.8,-3.8 z"
         id="path120"
         style="fill:#fe9101;fill-opacity:1" />
      <path
         class="st0"
         d="m 49.4,104.3 c -2.5,0 -4.5,2 -4.5,4.5 0,2.5 2,4.5 4.5,4.5 2.5,0 4.5,-2 4.5,-4.5 0.1,-2.5 -2,-4.5 -4.5,-4.5 z"
         id="path122"
         style="fill:#fe9101;fill-opacity:1" />
      <path
         class="st0"
         d="m 38.1,95.7 c -1.9,0 -3.7,1 -4.7,2.6 -1,1.7 -1,3.7 0,5.4 1,1.7 2.8,2.7 4.7,2.6 2.9,-0.1 5.2,-2.4 5.2,-5.3 0,-2.8 -2.3,-5.2 -5.2,-5.3 z"
         id="path124"
         style="fill:#fe9101;fill-opacity:1" />
      <path
         class="st0"
         d="m 28.6,82.9 c -3.2,0 -5.8,2.6 -5.8,5.8 0,3.2 2.6,5.8 5.8,5.8 3.2,0 5.8,-2.6 5.8,-5.8 0,-3.3 -2.6,-5.8 -5.8,-5.8 z"
         id="path126"
         style="fill:#fe9101;fill-opacity:1" />
      <circle
         transform="matrix(0.0708883,-0.9975,0.9975,0.0708883,-52.2184,91.9476)"
         class="st0"
         cx="23.200001"
         cy="74"
         id="ellipse128"
         style="fill:#fe9101;fill-opacity:1"
         r="4.5999999" />
      <circle
         transform="matrix(0.05529993,-0.9985,0.9985,0.05529993,-38.4253,79.8567)"
         class="st0"
         cx="23"
         cy="60.200001"
         id="ellipse130"
         style="fill:#fe9101;fill-opacity:1"
         r="3.7" />
      <path
         class="st0"
         d="m 26.7,43.8 c -1.9,0 -3.5,1.6 -3.5,3.5 0,1.9 1.6,3.5 3.5,3.5 1.9,0 3.5,-1.6 3.5,-3.5 0,-1.9 -1.6,-3.5 -3.5,-3.5 z"
         id="path132"
         style="fill:#fe9101;fill-opacity:1" />
      <path
         class="st0"
         d="m 33,33.9 c -1.1,0 -2.1,0.5 -2.6,1.5 -0.5,0.9 -0.5,2.1 0,3 0.5,0.9 1.6,1.5 2.6,1.5 1.6,0 2.9,-1.4 2.9,-3 0,-1.7 -1.3,-3 -2.9,-3 z"
         id="path134"
         style="fill:#fe9101;fill-opacity:1" />
      <path
         class="st0"
         d="m 40.6,26.5 c -1.4,0 -2.6,1.1 -2.6,2.6 0,1.4 1.1,2.6 2.6,2.6 1.5,0 2.6,-1.1 2.6,-2.6 0,-1.4 -1.2,-2.6 -2.6,-2.6 z"
         id="path136"
         style="fill:#fe9101;fill-opacity:1" />
      <path
         class="st0"
         d="m 48.6,21.3 c -1.2,0 -2.2,1 -2.2,2.2 0,1.2 1,2.2 2.2,2.2 1.2,0 2.2,-1 2.2,-2.2 0,-1.3 -1,-2.2 -2.2,-2.2 z"
         id="path138"
         style="fill:#fe9101;fill-opacity:1" />
      <path
         class="st0"
         d="m 57.7,17.2 c -1.4,0 -2.6,1.1 -2.6,2.6 0,1.4 1.1,2.6 2.6,2.6 1.4,0 2.6,-1.1 2.6,-2.6 0,-1.5 -1.2,-2.6 -2.6,-2.6 z"
         id="path140"
         style="fill:#fe9101;fill-opacity:1" />
      <path
         class="st0"
         d="m 68.4,14.6 c -1.1,0 -2.1,0.5 -2.6,1.5 -0.5,0.9 -0.5,2.1 0,3 0.5,0.9 1.6,1.5 2.6,1.5 1.6,0 2.9,-1.4 2.9,-3 0,-1.6 -1.3,-2.9 -2.9,-3 z"
         id="path142"
         style="fill:#fe9101;fill-opacity:1" />
      <path
         class="st0"
         d="m 80.6,14.1 c -1.4,0 -2.7,0.7 -3.4,1.9 -0.7,1.2 -0.7,2.7 0,3.9 0.7,1.2 2,1.9 3.4,1.9 2.1,0 3.8,-1.8 3.8,-3.9 0,-2.1 -1.7,-3.8 -3.8,-3.8 z"
         id="path144"
         style="fill:#fe9101;fill-opacity:1" />
      <path
         class="st0"
         d="m 93.1,17 c -2.5,0 -4.6,2 -4.6,4.6 0,2.5 2,4.6 4.6,4.6 2.5,0 4.6,-2 4.6,-4.6 0,-2.5 -2.1,-4.6 -4.6,-4.6 z"
         id="path146"
         style="fill:#fe9101;fill-opacity:1" />
      <path
         class="st0"
         d="m 104.9,24.2 c -3,0 -5.3,2.4 -5.3,5.3 0,2.9 2.4,5.3 5.3,5.3 3,0 5.3,-2.4 5.3,-5.3 0,-2.9 -2.4,-5.3 -5.3,-5.3 z"
         id="path148"
         style="fill:#fe9101;fill-opacity:1" />
      <path
         class="st0"
         d="m 114.3,36.2 c -2.1,0 -4,1.1 -5.1,2.9 -1.1,1.8 -1.1,4 0,5.8 1.1,1.8 3,2.9 5.1,2.9 3.2,-0.1 5.7,-2.6 5.7,-5.8 -0.1,-3.1 -2.6,-5.7 -5.7,-5.8 z"
         id="path150"
         style="fill:#fe9101;fill-opacity:1" />
      <path
         class="st0"
         d="m 119.6,52.1 c -1.6,0 -3.2,0.8 -4,2.2 -0.8,1.4 -0.8,3.2 0,4.6 0.8,1.4 2.4,2.3 4,2.2 2.5,-0.1 4.4,-2.1 4.4,-4.5 0,-2.4 -1.9,-4.4 -4.4,-4.5 z"
         id="path152"
         style="fill:#fe9101;fill-opacity:1" />
      <path
         class="st0"
         d="m 142.9,65.3 c 0,4.2 -3.4,7.6 -7.6,7.6 -4.2,0 -7.6,-3.4 -7.6,-7.6 0,-4.2 3.4,-7.6 7.6,-7.6 4.2,0.1 7.6,3.5 7.6,7.6 z"
         id="path154"
         style="fill:#fe9101;fill-opacity:1" />
      <path
         class="st1"
         d="m 517.1,77 c 0,-7.2 -4.1,-11 -10.5,-13.6 -5,-2 -9.4,-3.7 -12.8,-5.1 -3.3,-1.3 -6.2,-3.6 -6.2,-6.1 0,-3.4 4.2,-5.4 9.8,-5.4 6.6,0 11.8,0.9 16.7,1.4 h 0.2 c 0.8,0 1.3,-0.6 1.3,-1.4 v -5.6 c 0,-0.7 -0.6,-1.3 -1.4,-1.4 -2.6,-0.6 -9.2,-2 -16.4,-2 -14,0 -20.7,6 -20.7,14.4 0,5.3 2.3,10.5 8.9,13.2 6.6,2.7 20.1,5.9 20.1,11.5 0,4.4 -2,6.8 -8.8,6.8 -7,0 -14.1,-1 -17.1,-1.4 H 480 c -0.8,0 -1.4,0.6 -1.4,1.4 v 5.4 c 0,0.8 0.7,1.4 1.4,1.5 3.6,0.8 10.4,2 17.1,2 15.3,0.2 20,-8 20,-15.6 z"
         id="path156"
         style="fill:#ffffff" />
      <path
         class="st1"
         d="M 369.1,47.2 H 354 v 43.4 c 0,0.8 -0.7,1.5 -1.5,1.5 H 345 c -0.8,0 -1.5,-0.7 -1.5,-1.5 V 47.2 h -15.1 c -0.8,0 -1.5,-0.5 -1.5,-1.4 v -6 c 0,-0.8 0.7,-1.4 1.5,-1.4 h 40.7 c 0.8,0 1.5,0.6 1.5,1.4 v 6 c 0,0.9 -0.7,1.4 -1.5,1.4 z"
         id="path158"
         style="fill:#ffffff" />
      <path
         class="st1"
         d="M 320.3,71.4 V 39.9 c 0,-0.8 -0.7,-1.4 -1.5,-1.4 h -7.5 c -0.8,0 -1.5,0.6 -1.5,1.4 v 31.4 c 0,8.6 -4,12.7 -12.1,12.7 -8.1,0 -12.1,-4.1 -12.1,-12.7 V 39.9 c 0,-0.8 -0.7,-1.4 -1.5,-1.4 h -7.5 c -0.8,0 -1.5,0.6 -1.5,1.4 v 31.4 c 0,16.1 10.5,21.4 22.6,21.4 12.1,0 22.6,-5.2 22.6,-21.3 z"
         id="path160"
         style="fill:#ffffff" />
      <path
         class="st1"
         d="m 388,68.8 h 24.2 c 0.8,0 1.5,-0.7 1.5,-1.5 v -5.5 c 0,-0.8 -0.7,-1.5 -1.5,-1.5 H 388 v -6.9 c 0,-6.3 0.2,-6.5 6,-6.5 h 19.1 c 0.8,0 1.5,-0.7 1.5,-1.5 v -4.8 c 0,-1.1 -0.4,-1.4 -1.5,-1.6 -2.4,-0.4 -7.3,-1.1 -16.3,-1.1 -12.5,0 -19.2,-0.1 -19.2,15.5 v 23.9 c 0,15.6 6.7,15.5 19.2,15.5 9,0 13.9,-0.7 16.3,-1.1 1.1,-0.1 1.5,-0.5 1.5,-1.6 v -4.8 c 0,-0.8 -0.7,-1.5 -1.5,-1.5 H 394 c -5.7,0 -6,-0.2 -6,-6.5 z"
         id="path162"
         style="fill:#ffffff" />
      <path
         class="st1"
         d="m 238.7,68.8 h 24.2 c 0.8,0 1.5,-0.7 1.5,-1.5 v -5.5 c 0,-0.8 -0.7,-1.5 -1.5,-1.5 h -24.2 v -6.9 c 0,-6.3 0.2,-6.5 6,-6.5 h 19.1 c 0.8,0 1.5,-0.7 1.5,-1.5 v -4.8 c 0,-1.1 -0.4,-1.4 -1.5,-1.6 -2.4,-0.4 -7.3,-1.1 -16.3,-1.1 -12.5,0 -19.2,-0.1 -19.2,15.5 v 23.9 c 0,15.6 6.7,15.5 19.2,15.5 9,0 13.9,-0.7 16.3,-1.1 1.1,-0.1 1.5,-0.5 1.5,-1.6 v -4.8 c 0,-0.8 -0.7,-1.5 -1.5,-1.5 h -19.1 c -5.7,0 -6,-0.2 -6,-6.5 z"
         id="path164"
         style="fill:#ffffff" />
      <path
         class="st1"
         d="M 470.8,90.6 459,70.4 c 6.2,-2.4 10.2,-6.8 10.2,-14.8 V 55 c 0,-12.9 -10.7,-17.1 -22.4,-17.1 -5.5,0 -14,0.4 -17.9,1 -1.5,0.2 -2.4,0.8 -2.4,2.3 v 49.5 c 0,0.8 0.7,1.5 1.5,1.5 h 7.6 c 0.8,0 1.4,-0.7 1.4,-1.5 V 72 c 1.7,0.1 7.8,0.3 9.8,0.3 h 1.7 l 10.9,18.3 c 0.4,0.7 0.7,1.5 1.5,1.5 h 9.2 c 0.6,0 0.9,-0.4 0.9,-0.9 0,-0.2 -0.1,-0.4 -0.2,-0.6 z m -12.1,-35 c 0,6.6 -4.2,8.1 -12,8.1 -1.3,0 -8.6,-0.2 -9.8,-0.2 V 47.2 c 1.3,-0.2 8.2,-0.3 9.8,-0.3 7.6,0 12,2.4 12,8.1 z"
         id="path166"
         style="fill:#ffffff" />
      <path
         class="st1"
         d="M 220.1,90.6 208.2,70.4 c 6.2,-2.4 10.2,-6.8 10.2,-14.8 V 55 c 0,-12.9 -10.7,-17.1 -22.4,-17.1 -5.5,0 -14,0.4 -17.9,1 -1.5,0.2 -2.4,0.8 -2.4,2.3 v 49.5 c 0,0.8 0.7,1.5 1.5,1.5 h 7.6 c 0.8,0 1.4,-0.7 1.4,-1.5 V 72 c 1.7,0.1 7.8,0.3 9.8,0.3 h 1.7 l 10.9,18.3 c 0.4,0.7 0.7,1.5 1.5,1.5 h 9.2 c 0.6,0 0.9,-0.4 0.9,-0.9 0,-0.2 0,-0.4 -0.1,-0.6 z M 208,55.6 c 0,6.6 -4.2,8.1 -11.9,8.1 -1.3,0 -8.6,-0.2 -9.8,-0.2 V 47.2 c 1.3,-0.2 8.2,-0.3 9.8,-0.3 7.6,0 11.9,2.4 11.9,8.1 z"
         id="path168"
         style="fill:#ffffff" />
    </g>
  </g>
  <g
     inkscape:groupmode="layer"
     id="layer2"
     inkscape:label="Politico"
     style="display:none">
    <path
       fill="#cf1c23"
       d="m 2.2916755,16.11643 h 0.5870434 c 1.2705539,0 2.118046,-0.137802 2.5411042,-0.413409 0.4230582,-0.276987 0.6352752,-0.764812 0.6352752,-1.463478 0,-0.751032 -0.226,-1.281575 -0.6793724,-1.588879 C 4.9237294,12.341983 4.0913925,12.189022 2.8787189,12.189022 H 2.2916755 Z m -0.1446953,1.876884 v 6.3252 H -7.01814e-7 V 10.223941 H 3.4657658 c 1.0266363,0 1.781803,0.0565 2.2668724,0.169499 0.4850695,0.111619 0.9067483,0.296277 1.2664158,0.552591 0.4423516,0.327974 0.7882396,0.768946 1.0390399,1.324296 0.2508039,0.55535 0.3748264,1.167197 0.3748264,1.834169 0,0.666969 -0.1240225,1.28433 -0.3748264,1.847949 -0.2508003,0.564991 -0.5966883,1.007343 -1.0390399,1.328424 -0.3596675,0.257693 -0.7813463,0.439596 -1.2664158,0.54846 -0.4850694,0.110243 -1.2402361,0.163985 -2.2668724,0.163985 z M 21.963175,17.300162 c 0,-0.712445 -0.129537,-1.389059 -0.388606,-2.031224 -0.260449,-0.642165 -0.633899,-1.212674 -1.121724,-1.712902 -0.475425,-0.494714 -1.02526,-0.875055 -1.650891,-1.141017 -0.62563,-0.265959 -1.285709,-0.39963 -1.978861,-0.39963 -0.693155,0 -1.351855,0.132291 -1.978864,0.394119 -0.624251,0.263204 -1.182356,0.64492 -1.670181,1.146528 -0.487828,0.493339 -0.859896,1.062468 -1.116214,1.703254 -0.256314,0.642168 -0.384471,1.322913 -0.384471,2.040872 0,0.712445 0.128157,1.386307 0.384471,2.021582 0.256318,0.635276 0.628386,1.204405 1.116214,1.704633 0.487825,0.500229 1.043175,0.881945 1.666046,1.145149 0.622875,0.263207 1.282954,0.39412 1.982999,0.39412 0.686262,0 1.339452,-0.130913 1.959568,-0.39412 0.61874,-0.263204 1.17547,-0.64492 1.670184,-1.145149 0.487825,-0.500228 0.861275,-1.070737 1.121724,-1.708767 0.259069,-0.63941 0.388606,-1.310513 0.388606,-2.017448 m 2.38814,0 c 0,1.001832 -0.187414,1.948547 -0.563619,2.840136 -0.374827,0.891593 -0.921907,1.688098 -1.641243,2.38814 -0.724849,0.698666 -1.543402,1.234726 -2.454285,1.606797 -0.910883,0.372071 -1.867242,0.558105 -2.869075,0.558105 -1.014236,0 -1.98162,-0.187413 -2.902151,-0.56224 -0.920528,-0.376202 -1.734947,-0.910886 -2.440502,-1.602662 -0.719339,-0.700042 -1.26504,-1.492416 -1.6371116,-2.378491 -0.3720712,-0.886079 -0.558105,-1.835549 -0.558105,-2.849785 0,-1.007343 0.1860338,-1.956809 0.558105,-2.849778 0.3720716,-0.891593 0.9177726,-1.690853 1.6371116,-2.396409 0.717955,-0.700045 1.533754,-1.231967 2.444637,-1.598524 0.912262,-0.365181 1.87689,-0.54846 2.898016,-0.54846 1.014236,0 1.974727,0.183279 2.882854,0.54846 0.908128,0.366557 1.722547,0.898479 2.440506,1.598524 0.719336,0.712446 1.266416,1.515841 1.641243,2.411565 0.376205,0.894348 0.563619,1.839683 0.563619,2.834622 m 2.036741,7.018352 V 10.225317 h 2.2903 v 12.042672 h 5.122168 v 2.050525 z m 8.71747,-14.093197 h 2.291677 v 14.093197 h -2.291677 z m 9.54567,1.944412 v 12.148785 h -2.29168 V 12.169729 h -3.744129 v -1.944412 h 9.762024 v 1.944412 z m 4.925109,-1.944412 h 2.290297 V 24.318514 H 49.576305 Z M 65.879874,13.6525 c -0.649055,-0.552595 -1.333941,-0.966005 -2.056035,-1.242992 -0.72209,-0.275607 -1.481388,-0.413413 -2.276517,-0.413413 -1.540648,0 -2.793284,0.494718 -3.759288,1.482771 -0.966005,0.988053 -1.448319,2.268252 -1.448319,3.840589 0,1.521355 0.469911,2.77537 1.409732,3.764799 0.939824,0.988053 2.126315,1.481392 3.556719,1.481392 0.835089,0 1.628839,-0.147451 2.382626,-0.442349 0.753788,-0.294901 1.478637,-0.741387 2.171788,-1.338075 v 2.589332 c -0.615981,0.442356 -1.287088,0.774461 -2.011934,0.992191 -0.726228,0.217731 -1.511709,0.326595 -2.359201,0.326595 -1.077627,0 -2.075328,-0.176389 -2.988966,-0.529167 -0.915018,-0.352777 -1.718412,-0.872299 -2.411568,-1.559941 -0.686262,-0.673862 -1.215429,-1.467612 -1.583365,-2.38125 -0.369313,-0.915017 -0.553971,-1.88929 -0.553971,-2.92282 0,-1.033526 0.184658,-2.003665 0.553971,-2.911793 0.367936,-0.908124 0.902617,-1.706008 1.602659,-2.392274 0.700045,-0.693152 1.50206,-1.218184 2.406053,-1.573717 0.905373,-0.356912 1.883781,-0.5346804 2.9366,-0.5346804 0.828202,0 1.617818,0.1198914 2.36885,0.3610464 0.751029,0.241156 1.478633,0.604958 2.185568,1.092786 z m 14.310924,3.647662 c 0,-0.712445 -0.130915,-1.389059 -0.389985,-2.031224 -0.260449,-0.642165 -0.633896,-1.212674 -1.12172,-1.712902 -0.475425,-0.494714 -1.025261,-0.875055 -1.650891,-1.141017 -0.62563,-0.265959 -1.285709,-0.39963 -1.978861,-0.39963 -0.693155,0 -1.351855,0.132291 -1.978865,0.394119 -0.624251,0.263204 -1.182356,0.64492 -1.67018,1.146528 -0.486449,0.493339 -0.859896,1.062468 -1.116214,1.703254 -0.256314,0.642168 -0.384471,1.322913 -0.384471,2.040872 0,0.712445 0.128157,1.386307 0.384471,2.021582 0.256318,0.635276 0.629765,1.204405 1.116214,1.704633 0.487824,0.500229 1.043174,0.881945 1.666046,1.145149 0.622875,0.263207 1.282954,0.39412 1.982999,0.39412 0.686262,0 1.339451,-0.130913 1.959568,-0.39412 0.61874,-0.263204 1.175469,-0.64492 1.670184,-1.145149 0.487824,-0.500228 0.861271,-1.070737 1.12172,-1.708767 0.25907,-0.63941 0.389985,-1.310513 0.389985,-2.017448 m 2.386761,0 c 0,1.001832 -0.187413,1.948547 -0.563619,2.840136 -0.374827,0.891593 -0.921907,1.688098 -1.641242,2.38814 -0.724849,0.698666 -1.5434,1.234726 -2.454282,1.606797 -0.910883,0.372071 -1.867243,0.558105 -2.869075,0.558105 -1.014236,0 -1.98162,-0.187413 -2.902151,-0.56224 -0.921907,-0.376202 -1.734947,-0.910886 -2.440503,-1.602662 -0.719338,-0.700042 -1.26504,-1.492416 -1.637111,-2.378491 -0.372071,-0.886079 -0.558105,-1.835549 -0.558105,-2.849785 0,-1.007343 0.186034,-1.956809 0.558105,-2.849778 0.372071,-0.891593 0.917773,-1.690853 1.637111,-2.396409 0.717956,-0.700045 1.533755,-1.231967 2.444637,-1.598524 0.912263,-0.365181 1.878267,-0.54846 2.898017,-0.54846 1.014236,0 1.974727,0.183279 2.882854,0.54846 0.908128,0.366557 1.722543,0.898479 2.440503,1.598524 0.719335,0.712446 1.266415,1.515841 1.641242,2.411565 0.376206,0.894348 0.563619,1.839683 0.563619,2.834622"
       id="path1290"
       style="stroke-width:0.352778" />
  </g>
  <g
     inkscape:groupmode="layer"
     id="layer4"
     inkscape:label="Euronews"
     style="display:inline">
    <g
       id="g3314"
       transform="matrix(0.18577164,0,0,0.18577164,0,9.8875199)">
      <path
         d="M 62.45,57.51 C 56.91,65.44 48,70.17 38.56,70.17 24.82,70.17 12.71,60.1 9.78,46.23 l -0.11,-0.5 h 67.16 c 0.4,-2.73 0.29,-5.7 0.29,-5.7 v 0 c 0,-0.08 0,-0.17 0,-0.26 C 77.12,17.86 59.82,0.03 38.56,0.03 17.3,0.03 0,17.86 0,39.78 0,61.7 17.3,79.54 38.56,79.54 c 14.48,0 27.62,-8.26 34.29,-21.55 L 73.8,56.05 H 63.41 c -0.36,0.59 -0.71,1.11 -0.96,1.47 z M 9.33,35.91 C 11.22,20.79 23.79,9.39 38.56,9.39 c 14.77,0 27.34,11.4 29.23,26.52 l 0.06,0.46 H 9.27 Z"
         fill="#0172f0"
         id="path3281" />
      <path
         d="m 120.37,79.56 c -4.28,0 -8.37,-0.77 -12.17,-2.28 -3.77,-1.5 -7.1,-3.68 -9.9,-6.47 C 95.44,67.97 93.21,64.59 91.68,60.77 90.09,56.78 89.45,52.43 89.47,47.83 V 1.57 c 0,0 8.92,0 8.92,0 v 45.5 c -0.01,3.56 0.42,6.89 1.59,9.9 1.11,2.86 2.72,5.4 4.78,7.53 2.01,2.07 4.37,3.69 7.03,4.8 2.7,1.12 5.58,1.7 8.55,1.7 3.04,0 5.93,-0.58 8.63,-1.7 2.67,-1.12 5.05,-2.74 7.06,-4.81 2.07,-2.12 3.69,-4.65 4.82,-7.53 1.19,-3.03 1.92,-6.35 1.93,-9.89 V 1.57 h 8.9 v 46.26 c -0.02,4.61 -0.95,8.96 -2.56,12.92 -1.56,3.82 -3.8,7.2 -6.66,10.04 -2.83,2.8 -6.17,4.98 -9.92,6.48 -3.79,1.52 -7.89,2.29 -12.17,2.29 z"
         fill="#0172f0"
         id="path3283" />
      <path
         d="M 164.44,77.49 V 33.7 c 0,-3.26 0.39,-6.44 1.15,-9.47 1.04,-4.2 2.78,-7.95 5.15,-11.14 2.95,-3.97 6.89,-7.08 11.72,-9.26 5.58,-2.51 12.43,-3.78 20.35,-3.78 h 1.5 v 9.52 c 0,0 -1.46,0 -1.46,0 -5.77,0 -10.73,0.76 -14.75,2.25 -3.54,1.31 -6.45,3.22 -8.65,5.67 -1.92,2.14 -3.34,4.73 -4.24,7.7 -0.77,2.55 -1.16,5.41 -1.17,8.52 v 43.78 c 0,0 -9.6,0 -9.6,0 z"
         fill="#0172f0"
         id="path3285" />
      <path
         d="m 347.7,77.49 v -40 c 0.01,-3.1 -0.32,-5.98 -1.31,-8.55 -0.92,-2.4 -2.26,-4.5 -3.96,-6.27 -1.64,-1.7 -3.57,-3.02 -5.73,-3.92 -2.22,-0.93 -4.6,-1.4 -7.06,-1.4 -2.51,0 -4.9,0.48 -7.13,1.41 -2.18,0.92 -4.12,2.24 -5.77,3.95 -1.71,1.76 -3.05,3.87 -4,6.28 -1.02,2.6 -1.67,5.47 -1.68,8.54 V 77.5 H 293.4 V 36.72 c 0.02,-5.27 1.09,-10.25 2.93,-14.81 1.81,-4.45 4.41,-8.39 7.74,-11.7 3.3,-3.27 7.18,-5.81 11.53,-7.56 4.38,-1.75 9.08,-2.64 13.99,-2.65 4.92,0 9.62,0.89 14,2.64 4.38,1.75 8.26,4.3 11.53,7.57 3.33,3.32 5.92,7.26 7.7,11.71 1.82,4.6 2.56,9.59 2.54,14.84 V 77.5 c 0,0 -17.67,0 -17.67,0 z"
         fill="#0172f0"
         id="path3287" />
      <path
         d="M 412.55,79.51 C 391.29,79.51 374,61.68 374,39.76 374,17.84 391.29,0 412.55,0 c 21.26,0 38.55,17.84 38.55,39.76 0,2.03 -0.15,4.06 -0.45,6.07 l -0.09,0.6 h -60.2 l 0.26,0.82 c 3.12,9.76 11.94,16.32 21.94,16.32 5.43,0 10.55,-1.92 14.76,-5.55 0,0 1.13,-0.97 1.27,-1.1 h 18.77 l -0.53,1.05 c -6.66,13.28 -19.79,21.54 -34.26,21.54 z m 0,-63.57 c -10,0 -18.82,6.56 -21.94,16.33 l -0.26,0.81 h 44.38 l -0.26,-0.81 C 431.35,22.5 422.54,15.94 412.54,15.94 Z"
         fill="#0172f0"
         id="path3289" />
      <path
         d="M 457.11,2.02 V 1.57 c 0,0 19.12,0 19.12,0 2.34,18.31 8.34,47.34 13.53,60.46 5.49,-13.12 11.9,-42.16 14.24,-60.46 h 15.86 c 2.44,18.31 8.75,46.12 14.34,60.46 5.19,-14.34 11.09,-42.16 13.53,-60.46 h 19.02 v 0.45 c -4.37,28.58 -12.71,57.97 -19.83,75.47 h -23.8 c -3.97,-9.56 -8.75,-24.21 -11.19,-37.33 -2.34,13.12 -7.53,28.58 -11.09,37.33 h -23.8 C 468.69,58.37 459.63,26.3 457.11,2.02 Z"
         fill="#0172f0"
         id="path3291" />
      <path
         d="m 574.61,74.16 v -14.5 h 0.8 c 4.3,1.3 13.6,3.1 20.3,3.1 h 3.9 c 6.2,0 10.9,-1.9 10.9,-8.2 0,-4.7 -4.1,-6.6 -8.6,-7.8 l -11.7,-3.1 c -8.6,-2.2 -15.6,-8.2 -15.6,-21.1 0,-15.2 12.5,-21.5 27.7,-21.5 h 3.9 c 4.7,0 14.1,1.2 18.4,2.8 v 14.4 h -0.8 c -3.9,-1.1 -13.3,-2.3 -17.6,-2.3 h -3.5 c -5.5,0 -10.2,1.1 -10.2,6.6 0,4.3 3.2,6 7.1,7 l 11.7,3.2 c 11.29,3 17.19,9.7 17.19,21.8 0,16.8 -12.1,23.1 -28.89,23.1 h -3.9 c -5.9,0 -15.7,-1.6 -21.1,-3.5 z"
         fill="#0172f0"
         id="path3293" />
      <circle
         cx="655.31"
         cy="61.650002"
         r="16.02"
         fill="#0172f0"
         id="circle3295" />
      <path
         d="m 245.91,0.18 c -21.42,0 -38.79,17.8 -38.79,39.76 0,21.96 17.37,39.76 38.79,39.76 21.42,0 38.79,-17.8 38.79,-39.76 0,-21.96 -17.37,-39.76 -38.79,-39.76 z m 0,68.67 c -14.95,0 -27.11,-12.97 -27.11,-28.91 0,-15.94 12.16,-28.91 27.11,-28.91 14.95,0 27.11,12.97 27.11,28.91 0,15.94 -12.16,28.91 -27.11,28.91 z"
         fill="#0172f0"
         id="path3297" />
    </g>
  </g>
  <style
     type="text/css"
     id="style2">
	.st0{fill:#EC6519;}
	.st1{fill:#404040;}
</style>
</svg>
