<?xml version="1.0" encoding="UTF-8" standalone="no"?>
<svg
   width="350"
   height="234.27901"
   viewBox="0 0 350 234.279"
   fill="none"
   version="1.1"
   id="svg1073"
   sodipodi:docname="logo-symbol-wordmark.svg"
   inkscape:version="1.1.1 (3bf5ae0d25, 2021-09-20)"
   xmlns:inkscape="http://www.inkscape.org/namespaces/inkscape"
   xmlns:sodipodi="http://sodipodi.sourceforge.net/DTD/sodipodi-0.dtd"
   xmlns:xlink="http://www.w3.org/1999/xlink"
   xmlns="http://www.w3.org/2000/svg"
   xmlns:svg="http://www.w3.org/2000/svg">
  <defs
     id="defs1077" />
  <sodipodi:namedview
     id="namedview1075"
     pagecolor="#505050"
     bordercolor="#eeeeee"
     borderopacity="1"
     inkscape:pageshadow="0"
     inkscape:pageopacity="0"
     inkscape:pagecheckerboard="0"
     showgrid="false"
     height="234.27901px"
     inkscape:zoom="1.01341"
     inkscape:cx="124.82609"
     inkscape:cy="80.421551"
     inkscape:window-width="2560"
     inkscape:window-height="1009"
     inkscape:window-x="1912"
     inkscape:window-y="-8"
     inkscape:window-maximized="1"
     inkscape:current-layer="svg1073" />
  <symbol
     id="logo-symbol-wordmark"
     style="display:inline">
    <g
       aria-label="Fedieuropa"
       transform="matrix(0.28237037,0,0,0.28237037,-42.169636,310.98679)"
       id="text4469"
       fill="currentColor">
      <path
         d="m 149.34157,-787.79883 h 81.98242 v 30.65918 h -50.87402 v 29.98535 h 50.87402 v 30.20996 h -50.87402 v 74.34571 h -31.1084 z"
         id="path1204" />
      <path
         d="m 378.33083,-674.82031 h -98.49122 q 2.13379,13.02734 11.34278,20.77636 9.32129,7.63672 23.69629,7.63672 17.18261,0 29.53613,-12.0166 l 25.83008,12.12891 q -9.6582,13.70117 -23.13477,20.32715 -13.47656,6.51367 -32.00683,6.51367 -28.75,0 -46.83106,-18.08106 -18.08105,-18.19336 -18.08105,-45.48339 0,-27.96387 17.96875,-46.38184 18.08105,-18.53027 45.25879,-18.53027 28.8623,0 46.94336,18.53027 18.08105,18.41797 18.08105,48.74023 z m -30.77149,-24.14551 q -3.03223,-10.21973 -12.0166,-16.62109 -8.87207,-6.40137 -20.66406,-6.40137 -12.80274,0 -22.46094,7.1875 -6.06445,4.49219 -11.23047,15.83496 z"
         id="path1206" />
      <path
         d="m 493.44313,-791.9541 h 30.54688 v 169.35547 h -30.54688 v -12.91504 q -8.98437,8.53515 -18.08105,12.35351 -8.98438,3.70606 -19.54102,3.70606 -23.69629,0 -40.99121,-18.30567 -17.29492,-18.41796 -17.29492,-45.708 0,-28.30078 16.7334,-46.38184 16.73339,-18.08105 40.65429,-18.08105 11.00586,0 20.66407,4.15527 9.6582,4.15527 17.85644,12.46582 z m -32.23144,72.32422 q -14.2627,0 -23.69629,10.10742 -9.4336,9.99512 -9.4336,25.71777 0,15.83496 9.5459,26.05469 9.6582,10.21973 23.69629,10.21973 14.4873,0 24.0332,-9.99512 9.5459,-10.10742 9.5459,-26.3916 0,-15.94727 -9.5459,-25.83008 -9.5459,-9.88281 -24.1455,-9.88281 z"
         id="path1208" />
      <path
         d="m 567.0027,-795.09863 q 8.08594,0 13.81348,5.83984 5.83984,5.83984 5.83984,14.15039 0,8.19824 -5.72754,14.03809 -5.72754,5.72754 -13.70117,5.72754 -8.19824,0 -14.03809,-5.83985 -5.72753,-5.95215 -5.72753,-14.375 0,-8.08593 5.72753,-13.81347 5.72754,-5.72754 13.81348,-5.72754 z m -15.38574,50.3125 h 30.77148 v 122.1875 h -30.77148 z"
         id="path1210" />
      <path
         d="M 732.53981,-674.82031 H 634.0486 q 2.13379,13.02734 11.34277,20.77636 9.32129,7.63672 23.69629,7.63672 17.18262,0 29.53613,-12.0166 l 25.83008,12.12891 q -9.6582,13.70117 -23.13476,20.32715 -13.47657,6.51367 -32.00684,6.51367 -28.75,0 -46.83105,-18.08106 -18.08106,-18.19336 -18.08106,-45.48339 0,-27.96387 17.96875,-46.38184 18.08106,-18.53027 45.25879,-18.53027 28.86231,0 46.94336,18.53027 18.08105,18.41797 18.08105,48.74023 z m -30.77148,-24.14551 q -3.03223,-10.21973 -12.01661,-16.62109 -8.87207,-6.40137 -20.66406,-6.40137 -12.80273,0 -22.46094,7.1875 -6.06445,4.49219 -11.23046,15.83496 z"
         id="path1212" />
      <path
         d="m 757.24684,-744.78613 h 30.9961 v 58.84765 q 0,17.18262 2.35839,23.9209 2.3584,6.62598 7.52442,10.33203 5.27832,3.70606 12.91504,3.70606 7.63672,0 12.91504,-3.59375 5.39062,-3.70606 7.97363,-10.78125 1.90918,-5.27832 1.90918,-22.57324 v -59.8584 h 30.77148 v 51.77246 q 0,32.00683 -5.05371,43.79883 -6.17676,14.375 -18.19336,22.12402 -12.0166,7.63672 -30.54687,7.63672 -20.10254,0 -32.56836,-8.98438 -12.35352,-8.98437 -17.40723,-25.04394 -3.59375,-11.11817 -3.59375,-40.42969 z"
         id="path1214" />
      <path
         d="m 888.19411,-744.78613 h 26.27929 v 15.38574 q 4.26758,-9.09668 11.34278,-13.81348 7.07519,-4.71679 15.49804,-4.71679 5.95215,0 12.46582,3.14453 l -9.54589,26.3916 q -5.39063,-2.69531 -8.87207,-2.69531 -7.0752,0 -12.01661,8.75976 -4.8291,8.75977 -4.8291,34.36524 l 0.11231,5.95214 v 49.41407 h -30.43457 z"
         id="path1216" />
      <path
         d="m 1026.3289,-747.93066 q 17.2949,0 32.456,8.64746 15.2735,8.64746 23.8086,23.47168 8.5352,14.82422 8.5352,32.00683 0,17.29492 -8.6475,32.34375 -8.5351,15.04883 -23.3594,23.58399 -14.8242,8.42285 -32.6806,8.42285 -26.2793,0 -44.9219,-18.64258 -18.53027,-18.75488 -18.53027,-45.4834 0,-28.63769 21.00098,-47.72949 18.41799,-16.62109 42.33889,-16.62109 z m 0.4492,28.8623 q -14.2627,0 -23.8086,9.99512 -9.4336,9.88281 -9.4336,25.38086 0,15.94726 9.3213,25.83008 9.4336,9.88281 23.8086,9.88281 14.375,0 23.9209,-9.99512 9.5459,-9.99512 9.5459,-25.71777 0,-15.72266 -9.4336,-25.49317 -9.3213,-9.88281 -23.9209,-9.88281 z"
         id="path1218" />
      <path
         d="m 1146.6072,-744.78613 v 13.47656 q 8.3105,-8.31055 17.9687,-12.46582 9.6582,-4.15527 20.6641,-4.15527 23.9209,0 40.6543,18.08105 16.7334,18.08106 16.7334,46.38184 0,27.29004 -17.2949,45.708 -17.2949,18.30567 -40.9912,18.30567 -10.5567,0 -19.6534,-3.70606 -9.0966,-3.81836 -18.081,-12.35351 v 57.6123 h -30.4346 v -166.88476 z m 32.2314,25.15625 q -14.4873,0 -24.0332,9.88281 -9.5459,9.88281 -9.5459,25.83008 0,16.28418 9.5459,26.3916 9.5459,9.99512 24.0332,9.99512 14.0381,0 23.584,-10.21973 9.6582,-10.21973 9.6582,-26.05469 0,-15.72265 -9.4336,-25.71777 -9.4336,-10.10742 -23.8086,-10.10742 z"
         id="path1220" />
      <path
         d="m 1358.3015,-744.78613 h 30.5469 v 122.1875 h -30.5469 v -12.91504 q -8.9843,8.53515 -18.081,12.35351 -8.9844,3.70606 -19.541,3.70606 -23.6963,0 -40.9913,-18.30567 -17.2949,-18.41796 -17.2949,-45.708 0,-28.30078 16.7334,-46.38184 16.7334,-18.08105 40.6543,-18.08105 11.0059,0 20.6641,4.15527 9.6582,4.15527 17.8564,12.46582 z m -32.2314,25.15625 q -14.2627,0 -23.6963,10.10742 -9.4336,9.99512 -9.4336,25.71777 0,15.83496 9.5459,26.05469 9.6582,10.21973 23.6963,10.21973 14.4873,0 24.0332,-9.99512 9.5459,-10.10742 9.5459,-26.3916 0,-15.94727 -9.5459,-25.83008 -9.5459,-9.88281 -24.1455,-9.88281 z"
         id="path1222" />
    </g>
    <g
       id="g55224"
       transform="matrix(2.0328719,0,0,-2.0328719,-1311.529,2832.9142)"
       inkscape:export-filename="C:\Users\innos\OneDrive\Pictures\Mastodon assets\logo.png"
       inkscape:export-xdpi="140.62502"
       inkscape:export-ydpi="140.62502">
      <g
         id="g38327">
        <use
           xlink:href="#s-4"
           transform="translate(43.365296,-75.110902)"
           id="use54190-5"
           x="0"
           y="0"
           width="100%"
           height="100%"
           style="display:inline" />
        <use
           xlink:href="#s-4"
           transform="translate(25.036984,-93.439213)"
           id="use54192-2"
           x="0"
           y="0"
           width="100%"
           height="100%"
           style="display:inline" />
        <use
           xlink:href="#s-4"
           transform="translate(1.7523892e-5,-100.14787)"
           id="use54194-1"
           x="0"
           y="0"
           width="100%"
           height="100%"
           style="display:inline" />
        <use
           xlink:href="#s-4"
           transform="translate(-25.036949,-93.439213)"
           id="use54196-2"
           x="0"
           y="0"
           width="100%"
           height="100%"
           style="display:inline" />
        <use
           xlink:href="#s-4"
           transform="translate(-43.365303,-75.110902)"
           id="use54198-7"
           x="0"
           y="0"
           width="100%"
           height="100%"
           style="display:inline" />
      </g>
      <g
         id="g38341">
        <g
           id="s-4"
           transform="matrix(0.41728278,0,0,-0.41728278,731.24578,1385.2071)"
           fill="#ffcc00">
          <g
             id="c-2">
            <path
               id="t-7"
               d="M 0,-20 V 0 h 10"
               transform="rotate(18,0,-20)" />
            <use
               xlink:href="#t-7"
               transform="scale(-1,1)"
               id="use54172-2"
               x="0"
               y="0"
               width="100%"
               height="100%" />
          </g>
          <use
             xlink:href="#c-2"
             transform="rotate(72)"
             id="use54175-4"
             x="0"
             y="0"
             width="100%"
             height="100%" />
          <use
             xlink:href="#c-2"
             transform="rotate(144)"
             id="use54177-9"
             x="0"
             y="0"
             width="100%"
             height="100%" />
          <use
             xlink:href="#c-2"
             transform="rotate(-144)"
             id="use54179-0"
             x="0"
             y="0"
             width="100%"
             height="100%" />
          <use
             xlink:href="#c-2"
             transform="rotate(-72)"
             id="use54181-8"
             x="0"
             y="0"
             width="100%"
             height="100%" />
        </g>
        <use
           xlink:href="#s-4"
           transform="translate(25.036984,-6.7086147)"
           id="use54184-4"
           x="0"
           y="0"
           width="100%"
           height="100%"
           style="display:inline" />
        <use
           xlink:href="#s-4"
           transform="translate(43.365296,-25.036968)"
           id="use54186-9"
           x="0"
           y="0"
           width="100%"
           height="100%"
           style="display:inline" />
        <use
           xlink:href="#s-4"
           transform="translate(-43.365303,-25.036968)"
           id="use54202-0"
           x="0"
           y="0"
           width="100%"
           height="100%" />
        <use
           xlink:href="#s-4"
           transform="translate(-25.036949,-6.7086147)"
           id="use54204-1"
           x="0"
           y="0"
           width="100%"
           height="100%" />
      </g>
    </g>
    <defs
       id="defs1068">
      <linearGradient
         id="paint0_linear_89_11"
         x1="30.5"
         y1="0.0130005"
         x2="30.5"
         y2="65.013"
         gradientUnits="userSpaceOnUse"
         gradientTransform="translate(0,52.932169)">
        <stop
           stop-color="#6364FF"
           id="stop1063" />
        <stop
           offset="1"
           stop-color="#563ACC"
           id="stop1065" />
      </linearGradient>
    </defs>
  </symbol>
  <use
     xlink:href="#logo-symbol-wordmark"
     id="use1071"
     x="0"
     y="0"
     width="100%"
     height="100%"
     style="display:inline" />
  <g
     id="g43745"
     transform="matrix(0.28237037,0,0,-0.28237037,-56.363118,32.49995)" />
</svg>
