<?xml version="1.0" encoding="UTF-8" standalone="no"?>
<svg
   width="350.16101"
   height="153.66"
   viewBox="0 0 350.16101 153.66"
   fill="none"
   version="1.1"
   id="svg1073"
   sodipodi:docname="logo-symbol-wordmark.svg"
   inkscape:version="1.1.1 (3bf5ae0d25, 2021-09-20)"
   xmlns:inkscape="http://www.inkscape.org/namespaces/inkscape"
   xmlns:sodipodi="http://sodipodi.sourceforge.net/DTD/sodipodi-0.dtd"
   xmlns:xlink="http://www.w3.org/1999/xlink"
   xmlns="http://www.w3.org/2000/svg"
   xmlns:svg="http://www.w3.org/2000/svg">
  <defs
     id="defs1077" />
  <sodipodi:namedview
     id="namedview1075"
     pagecolor="#505050"
     bordercolor="#eeeeee"
     borderopacity="1"
     inkscape:pageshadow="0"
     inkscape:pageopacity="0"
     inkscape:pagecheckerboard="0"
     showgrid="false"
     height="153.66px"
     inkscape:zoom="2.0268199"
     inkscape:cx="166.02363"
     inkscape:cy="55.505671"
     inkscape:window-width="2560"
     inkscape:window-height="1009"
     inkscape:window-x="1912"
     inkscape:window-y="-8"
     inkscape:window-maximized="1"
     inkscape:current-layer="logo-symbol-wordmark" />
  <symbol
     id="logo-symbol-wordmark"
     style="display:inline">
    <g
       id="g54231"
       transform="matrix(0.55637702,0,0,0.55637702,91.623952,-5.563966)"
       inkscape:label="g54231">
      <g
         id="s"
         transform="translate(150,30)"
         fill="#ffcc00">
        <g
           id="c">
          <path
             id="t"
             d="M 0,-20 V 0 h 10"
             transform="rotate(18,0,-20)" />
          <use
             xlink:href="#t"
             transform="scale(-1,1)"
             id="use54172"
             x="0"
             y="0"
             width="100%"
             height="100%" />
        </g>
        <use
           xlink:href="#c"
           transform="rotate(72)"
           id="use54175"
           x="0"
           y="0"
           width="100%"
           height="100%" />
        <use
           xlink:href="#c"
           transform="rotate(144)"
           id="use54177"
           x="0"
           y="0"
           width="100%"
           height="100%" />
        <use
           xlink:href="#c"
           transform="rotate(-144)"
           id="use54179"
           x="0"
           y="0"
           width="100%"
           height="100%" />
        <use
           xlink:href="#c"
           transform="rotate(-72)"
           id="use54181"
           x="0"
           y="0"
           width="100%"
           height="100%" />
      </g>
      <use
         xlink:href="#s"
         transform="translate(60,16.076952)"
         id="use54184"
         x="0"
         y="0"
         width="100%"
         height="100%"
         style="display:inline" />
      <use
         xlink:href="#s"
         transform="translate(103.92305,60)"
         id="use54186"
         x="0"
         y="0"
         width="100%"
         height="100%"
         style="display:inline" />
      <use
         xlink:href="#s"
         transform="translate(120,120)"
         id="use54188"
         x="0"
         y="0"
         width="100%"
         height="100%"
         style="display:none"
         display="none" />
      <use
         xlink:href="#s"
         transform="translate(103.92305,180)"
         id="use54190"
         x="0"
         y="0"
         width="100%"
         height="100%"
         style="display:inline" />
      <use
         xlink:href="#s"
         transform="translate(60,223.92305)"
         id="use54192"
         x="0"
         y="0"
         width="100%"
         height="100%"
         style="display:inline" />
      <use
         xlink:href="#s"
         transform="translate(0,240)"
         id="use54194"
         x="0"
         y="0"
         width="100%"
         height="100%"
         style="display:inline" />
      <use
         xlink:href="#s"
         transform="translate(-60,223.92305)"
         id="use54196"
         x="0"
         y="0"
         width="100%"
         height="100%"
         style="display:inline" />
      <use
         xlink:href="#s"
         transform="translate(-103.92305,180)"
         id="use54198"
         x="0"
         y="0"
         width="100%"
         height="100%"
         style="display:inline" />
      <use
         xlink:href="#s"
         transform="translate(-120,120)"
         id="use54200"
         x="0"
         y="0"
         width="100%"
         height="100%"
         style="display:none"
         display="none" />
      <use
         xlink:href="#s"
         transform="translate(-103.92305,60)"
         id="use54202"
         x="0"
         y="0"
         width="100%"
         height="100%" />
      <use
         xlink:href="#s"
         transform="translate(-60,16.076952)"
         id="use54204"
         x="0"
         y="0"
         width="100%"
         height="100%" />
    </g>
    <path
       d="M 60.7539,67.335569 C 59.8143,60.351589 53.7273,54.847739 46.5117,53.781235 45.2943,53.601023 40.6819,52.945169 29.9973,52.945169 h -0.0798 c -10.6876,0 -12.9805,0.655854 -14.1979,0.836066 -7.01472,1.036954 -13.42075,5.982454 -14.974983,13.049134 -0.74756688,3.4802 -0.8273468,7.3385 -0.6884706,10.8777 0.1979726,5.0755 0.2363846,10.1421 0.6973356,15.1969 0.318668,3.3577 0.874578,6.6886 1.663558,9.967801 1.47741,6.0563 7.45795,11.0963 13.31736,13.1525 6.2733,2.1443 13.0198,2.5003 19.484,1.0281 0.7111,-0.1654 1.4134,-0.3574 2.1068,-0.5761 1.5719,-0.4992 3.4128,-1.0576 4.7661,-2.0384 0.0186,-0.0138 0.0338,-0.0316 0.0445,-0.052 0.0108,-0.0205 0.0168,-0.0431 0.0176,-0.0662 v -4.8982 c -4e-4,-0.0216 -0.0055,-0.0428 -0.0151,-0.0622 -0.0096,-0.0193 -0.0234,-0.0363 -0.0404,-0.0496 -0.017,-0.0133 -0.0368,-0.0226 -0.0579,-0.0273 -0.021,-0.005 -0.0429,-0.005 -0.0639,2e-4 -4.1416,0.9892 -8.3856,1.485 -12.6437,1.4772 -7.3279,0 -9.2988,-3.4772 -9.8631,-4.9248 -0.4537,-1.2511 -0.7418,-2.5562 -0.8569,-3.882 -0.0012,-0.0222 0.0029,-0.0445 0.0119,-0.0649 0.009,-0.0203 0.0227,-0.0383 0.04,-0.0524 0.0173,-0.0141 0.0376,-0.024 0.0594,-0.0287 0.0218,-0.005 0.0444,-0.004 0.066,0.001 4.0725,0.9824 8.2473,1.4782 12.4368,1.4771 1.0075,0 2.0122,0 3.0198,-0.0266 4.2135,-0.1182 8.6546,-0.3338 12.8002,-1.1433 0.1034,-0.0207 0.2069,-0.0384 0.2955,-0.065 6.539,-1.2556 12.7618,-5.196601 13.3942,-15.176201 0.0236,-0.3929 0.0827,-4.1153 0.0827,-4.523 0.0029,-1.3856 0.4462,-9.829 -0.065,-15.0167 z"
       fill="url(#paint0_linear_89_11)"
       id="path1057"
       style="fill:url(#paint0_linear_89_11)" />
    <path
       d="m 12.3442,71.235569 c 0,-2.0366 1.6335,-3.684 3.6528,-3.684 2.0193,0 3.6527,1.6474 3.6527,3.684 0,2.0366 -1.6334,3.684 -3.6527,3.684 -2.0193,0 -3.6528,-1.6474 -3.6528,-3.684 z"
       fill="currentColor"
       id="path1059" />
    <path
       id="path49422"
       d="m 343.31606,63.502162 h 6.84532 v 27.381316 h -6.84532 v -2.894165 q -2.01334,1.912666 -4.05184,2.768332 -2.01333,0.830499 -4.37899,0.830499 -5.31017,0 -9.18583,-4.102164 -3.87566,-4.127331 -3.87566,-10.242827 0,-6.341996 3.74983,-10.393827 3.74983,-4.051831 9.11032,-4.051831 2.46634,0 4.63067,0.931167 2.16433,0.931166 4.0015,2.793498 z m -7.22283,5.63733 q -3.19617,0 -5.31017,2.264998 -2.114,2.239832 -2.114,5.763163 0,3.548498 2.13917,5.838663 2.16433,2.290166 5.31016,2.290166 3.2465,0 5.38567,-2.239832 2.13916,-2.264999 2.13916,-5.914163 0,-3.573665 -2.13916,-5.78833 -2.13917,-2.214665 -5.41083,-2.214665 z m -40.21631,-5.63733 v 3.019998 q 1.86234,-1.862332 4.02667,-2.793498 2.16433,-0.931167 4.63066,-0.931167 5.3605,0 9.11033,4.051831 3.74983,4.051831 3.74983,10.393827 0,6.115496 -3.87566,10.242827 -3.87567,4.102164 -9.18583,4.102164 -2.36567,0 -4.40417,-0.830499 -2.03849,-0.855666 -4.05183,-2.768332 v 12.910497 h -6.82016 V 63.502162 Z m 7.22283,5.63733 q -3.2465,0 -5.38566,2.214665 -2.13917,2.214665 -2.13917,5.78833 0,3.649164 2.13917,5.914163 2.13916,2.239832 5.38566,2.239832 3.14583,0 5.285,-2.290166 2.16433,-2.290165 2.16433,-5.838663 0,-3.523331 -2.114,-5.763163 -2.114,-2.264998 -5.33533,-2.264998 z m -34.17631,-6.341997 q 3.87567,0 7.27317,1.937833 3.42266,1.937832 5.33533,5.25983 1.91266,3.321998 1.91266,7.172495 0,3.875665 -1.93783,7.247996 -1.91267,3.372331 -5.23466,5.284997 -3.322,1.887498 -7.3235,1.887498 -5.889,0 -10.06666,-4.177664 -4.1525,-4.20283 -4.1525,-10.192493 0,-6.417496 4.70617,-10.695827 4.12733,-3.724665 9.48782,-3.724665 z m 0.10067,6.46783 q -3.19617,0 -5.33533,2.239832 -2.114,2.214665 -2.114,5.687663 0,3.573664 2.08883,5.78833 2.114,2.214665 5.33533,2.214665 3.22133,0 5.3605,-2.239832 2.13916,-2.239832 2.13916,-5.763163 0,-3.523331 -2.11399,-5.71283 -2.08884,-2.214665 -5.3605,-2.214665 z m -31.05565,-5.763163 h 5.88899 v 3.447831 q 0.95634,-2.038499 2.54184,-3.095498 1.58549,-1.057 3.47299,-1.057 1.33384,0 2.7935,0.704667 l -2.13916,5.914163 q -1.208,-0.604 -1.98817,-0.604 -1.5855,0 -2.69283,1.962999 -1.08217,1.962999 -1.08217,7.700995 l 0.0252,1.333833 v 11.073326 h -6.82016 z m -29.34432,0 h 6.946 v 13.187325 q 0,3.850498 0.5285,5.360497 0.5285,1.484832 1.68616,2.315332 1.18284,0.830499 2.89417,0.830499 1.71133,0 2.89416,-0.805333 1.208,-0.830499 1.78684,-2.415998 0.42783,-1.182833 0.42783,-5.058497 V 63.502162 h 6.89566 v 11.601826 q 0,7.172495 -1.1325,9.814994 -1.38416,3.221331 -4.077,4.95783 -2.69283,1.711332 -6.84532,1.711332 -4.50484,0 -7.29833,-2.013332 -2.76834,-2.013332 -3.90083,-5.612163 -0.80534,-2.491498 -0.80534,-9.059994 z m -5.53666,15.678823 h -22.07115 q 0.47816,2.919332 2.54183,4.655831 2.08883,1.711332 5.31016,1.711332 3.8505,0 6.61883,-2.692832 l 5.78833,2.717999 q -2.16433,3.070331 -5.18433,4.555164 -3.02,1.459665 -7.1725,1.459665 -6.44266,0 -10.49449,-4.05183 -4.05183,-4.076998 -4.05183,-10.192494 0,-6.266496 4.02666,-10.393827 4.05183,-4.152498 10.14216,-4.152498 6.46783,0 10.51966,4.152498 4.05184,4.127331 4.05184,10.922327 z m -6.89566,-5.41083 q -0.6795,-2.290165 -2.69284,-3.724664 -1.98816,-1.434499 -4.63066,-1.434499 -2.869,0 -5.03333,1.610666 -1.359,1.006666 -2.51666,3.548497 z M 66.1484,74.400669 v 16.9154 h -6.6496 v -16.4095 c 0,-3.4635 -1.4405,-5.2147 -4.3345,-5.2147 -3.1897,0 -4.7975,2.0885 -4.7975,6.2006 v 8.9896 h -6.5981 v -8.9896 c 0,-4.1251 -1.5949,-6.2006 -4.7975,-6.2006 -2.8811,0 -4.3345,1.7512 -4.3345,5.2147 v 16.4095 H 28 v -16.9154 c 0,-3.4505 0.8746,-6.2005 2.6238,-8.2371 1.8136,-2.0366 4.1801,-3.0744 7.1127,-3.0744 3.3955,0 5.9807,1.3232 7.6785,3.9565 l 1.6592,2.8019 1.6592,-2.8019 c 1.6977,-2.6333 4.2701,-3.9565 7.6785,-3.9565 2.9325,0 5.2991,1.0378 7.1127,3.0744 1.7492,2.0366 2.6238,4.7736 2.6238,8.2371 z m 22.8813,8.4058 c 1.3762,-1.4658 2.0322,-3.2948 2.0322,-5.513 0,-2.2182 -0.656,-4.0602 -2.0322,-5.4612 -1.3248,-1.4658 -2.9968,-2.1663 -5.029,-2.1663 -2.0322,0 -3.7042,0.7005 -5.029,2.1663 -1.3248,1.401 -1.9807,3.243 -1.9807,5.4612 0,2.2182 0.6559,4.0602 1.9807,5.513 1.3248,1.401 2.9968,2.1145 5.029,2.1145 2.0322,0 3.7042,-0.7005 5.029,-2.1145 z m 2.0322,-19.0427 h 6.5467 v 27.0594 h -6.5467 v -3.1911 c -1.9808,2.6463 -4.7203,3.9564 -8.2831,3.9564 -3.5627,0 -6.3023,-1.349 -8.7332,-4.1121 -2.3923,-2.763 -3.6013,-6.1746 -3.6013,-10.1699 0,-3.9954 1.2218,-7.3551 3.6013,-10.1182 2.4437,-2.763 5.3377,-4.1639 8.7332,-4.1639 3.3956,0 6.3023,1.2972 8.2831,3.9434 v -3.1911 z m 28.5921,13.0367 c 1.929,1.4659 2.894,3.5154 2.842,6.1098 0,2.763 -0.964,4.9294 -2.945,6.4341 -1.981,1.4658 -4.373,2.2182 -7.267,2.2182 -5.235,0 -8.785,-2.1663 -10.663,-6.4341 l 5.685,-3.4116 c 0.759,2.322 2.431,3.5154 4.978,3.5154 2.341,0 3.498,-0.7524 3.498,-2.322 0,-1.1415 -1.517,-2.1663 -4.617,-2.9706 -1.17,-0.3242 -2.135,-0.6485 -2.894,-0.921 -1.067,-0.428 -1.981,-0.921 -2.739,-1.5177 -1.878,-1.4658 -2.843,-3.4116 -2.843,-5.9022 0,-2.6463 0.913,-4.7607 2.74,-6.2784 1.877,-1.5696 4.167,-2.322 6.906,-2.322 4.374,0 7.563,1.8939 9.647,5.7336 l -5.582,3.243 c -0.81,-1.842 -2.187,-2.763 -4.065,-2.763 -1.98,0 -2.945,0.7523 -2.945,2.2182 0,1.1415 1.518,2.1663 4.618,2.9705 2.392,0.5449 4.27,1.3491 5.633,2.3869 z m 20.823,-6.3303 h -5.736 v 11.2597 c 0,1.3491 0.514,2.1663 1.479,2.5425 0.707,0.2724 2.135,0.3243 4.27,0.2205 v 6.3303 c -4.411,0.5448 -7.614,0.1038 -9.492,-1.3491 -1.878,-1.401 -2.791,-4.0083 -2.791,-7.7313 v -11.2726 h -4.412 v -6.7064 h 4.412 v -5.46122 l 6.547,-2.11443 v 7.57565 h 5.736 v 6.7064 z m 20.875,12.1807 c 1.325,-1.401 1.981,-3.1911 1.981,-5.3574 0,-2.1663 -0.656,-3.9435 -1.981,-5.3574 -1.325,-1.401 -2.945,-2.1145 -4.926,-2.1145 -1.981,0 -3.601,0.7005 -4.926,2.1145 -1.273,1.4658 -1.929,3.243 -1.929,5.3574 0,2.1144 0.656,3.8916 1.929,5.3574 1.325,1.4009 2.945,2.1144 4.926,2.1144 1.981,0 3.601,-0.7005 4.926,-2.1144 z m -14.469,4.8126 c -2.586,-2.7631 -3.859,-6.1098 -3.859,-10.17 0,-4.0602 1.273,-7.3551 3.859,-10.1181 2.585,-2.763 5.787,-4.164 9.543,-4.164 3.756,0 6.958,1.401 9.544,4.164 2.585,2.763 3.91,6.1746 3.91,10.1181 0,3.9434 -1.325,7.4069 -3.91,10.17 -2.586,2.763 -5.737,4.1121 -9.544,4.1121 -3.807,0 -6.958,-1.3491 -9.543,-4.1121 z"
       fill="currentColor" />
    <defs
       id="defs1068">
      <linearGradient
         id="paint0_linear_89_11"
         x1="30.5"
         y1="0.0130005"
         x2="30.5"
         y2="65.013"
         gradientUnits="userSpaceOnUse"
         gradientTransform="translate(0,52.932169)">
        <stop
           stop-color="#6364FF"
           id="stop1063" />
        <stop
           offset="1"
           stop-color="#563ACC"
           id="stop1065" />
      </linearGradient>
    </defs>
  </symbol>
  <use
     xlink:href="#logo-symbol-wordmark"
     id="use1071"
     x="0"
     y="0"
     width="100%"
     height="100%"
     style="display:inline" />
</svg>
