<?xml version="1.0" encoding="UTF-8" standalone="no"?>
<!-- Created with Inkscape (http://www.inkscape.org/) -->

<svg
   width="210mm"
   height="297mm"
   viewBox="0 0 210 297"
   version="1.1"
   id="svg5"
   inkscape:version="1.1.1 (3bf5ae0d25, 2021-09-20)"
   sodipodi:docname="logo-symbol-wordmark.svg"
   xmlns:inkscape="http://www.inkscape.org/namespaces/inkscape"
   xmlns:sodipodi="http://sodipodi.sourceforge.net/DTD/sodipodi-0.dtd"
   xmlns:xlink="http://www.w3.org/1999/xlink"
   xmlns="http://www.w3.org/2000/svg"
   xmlns:svg="http://www.w3.org/2000/svg">
  <sodipodi:namedview
     id="namedview7"
     pagecolor="#505050"
     bordercolor="#eeeeee"
     borderopacity="1"
     inkscape:pageshadow="0"
     inkscape:pageopacity="0"
     inkscape:pagecheckerboard="0"
     inkscape:document-units="mm"
     showgrid="false"
     inkscape:zoom="2.9362514"
     inkscape:cx="287.61161"
     inkscape:cy="411.91977"
     inkscape:window-width="2560"
     inkscape:window-height="1009"
     inkscape:window-x="1912"
     inkscape:window-y="-8"
     inkscape:window-maximized="1"
     inkscape:current-layer="logo-symbol-wordmark" />
  <defs
     id="defs2">
    <linearGradient
       id="paint0_linear_89_11"
       x1="30.5"
       y1="0.0130005"
       x2="30.5"
       y2="65.013"
       gradientUnits="userSpaceOnUse">
      <stop
         stop-color="#6364FF"
         id="stop830" />
      <stop
         offset="1"
         stop-color="#563ACC"
         id="stop832" />
    </linearGradient>
  </defs>
  <g
     inkscape:label="Layer 1"
     inkscape:groupmode="layer"
     id="layer1">
    <g
       style="fill:none"
       id="g861"
       transform="matrix(0.26458333,0,0,0.26458333,60.37658,98.08877)">
      <symbol
         id="logo-symbol-wordmark">
        <path
           d="M 60.7539,14.4034 C 59.8143,7.41942 53.7273,1.91557 46.5117,0.849066 45.2943,0.668854 40.6819,0.0130005 29.9973,0.0130005 H 29.9175 C 19.2299,0.0130005 16.937,0.668854 15.7196,0.849066 8.70488,1.88602 2.29885,6.83152 0.744617,13.8982 -0.00294988,17.3784 -0.0827298,21.2367 0.0561464,24.7759 0.254119,29.8514 0.292531,34.918 0.753482,39.9728 c 0.318668,3.3577 0.874578,6.6886 1.663558,9.9678 1.47741,6.0563 7.45795,11.0963 13.31736,13.1525 6.2733,2.1443 13.0198,2.5003 19.484,1.0281 0.7111,-0.1654 1.4134,-0.3574 2.1068,-0.5761 1.5719,-0.4992 3.4128,-1.0576 4.7661,-2.0384 0.0186,-0.0138 0.0338,-0.0316 0.0445,-0.052 0.0108,-0.0205 0.0168,-0.0431 0.0176,-0.0662 v -4.8982 c -4e-4,-0.0216 -0.0055,-0.0428 -0.0151,-0.0622 -0.0096,-0.0193 -0.0234,-0.0363 -0.0404,-0.0496 -0.017,-0.0133 -0.0368,-0.0226 -0.0579,-0.0273 -0.021,-0.0047 -0.0429,-0.0046 -0.0639,2e-4 -4.1416,0.9892 -8.3856,1.485 -12.6437,1.4772 -7.3279,0 -9.2988,-3.4772 -9.8631,-4.9248 -0.4537,-1.2511 -0.7418,-2.5562 -0.8569,-3.882 -0.0012,-0.0222 0.0029,-0.0445 0.0119,-0.0649 0.009,-0.0203 0.0227,-0.0383 0.04,-0.0524 0.0173,-0.0141 0.0376,-0.024 0.0594,-0.0287 0.0218,-0.0048 0.0444,-0.0043 0.066,0.0013 4.0725,0.9824 8.2473,1.4782 12.4368,1.4771 1.0075,0 2.0122,0 3.0198,-0.0266 4.2135,-0.1182 8.6546,-0.3338 12.8002,-1.1433 0.1034,-0.0207 0.2069,-0.0384 0.2955,-0.065 6.539,-1.2556 12.7618,-5.1966 13.3942,-15.1762 0.0236,-0.3929 0.0827,-4.1153 0.0827,-4.523 0.0029,-1.3856 0.4462,-9.829 -0.065,-15.0167 z"
           fill="url(#paint0_linear_89_11)"
           id="path824"
           style="fill:url(#paint0_linear_89_11)" />
        <path
           d="m 12.3442,18.3034 c 0,-2.0366 1.6335,-3.684 3.6528,-3.684 2.0193,0 3.6527,1.6474 3.6527,3.684 0,2.0366 -1.6334,3.684 -3.6527,3.684 -2.0193,0 -3.6528,-1.6474 -3.6528,-3.684 z"
           fill="currentColor"
           id="path826" />
        <path
           d="m 260.17,21.261 v 16.617 h -6.547 V 22.1301 c 0,-1.7901 -0.45,-3.1392 -1.376,-4.164 -0.862,-0.921 -2.083,-1.401 -3.653,-1.401 -3.704,0 -5.582,2.2182 -5.582,6.7065 V 37.878 h -6.546 V 10.8316 h 6.546 v 3.0354 c 1.569,-2.5425 4.065,-3.7878 7.563,-3.7878 2.791,0 5.081,0.9729 6.856,2.9706 1.826,1.9976 2.739,4.7088 2.739,8.2242"
           id="path1899"
           fill="currentColor" />
        <path
           id="path1897"
           d="m 544.66211,339.92578 c -3.756,0 -6.95892,1.40106 -9.54492,4.16406 -2.585,2.763 -3.85742,6.05894 -3.85742,10.11914 0,4.0602 1.27242,7.40693 3.85742,10.16993 2.586,2.763 5.73792,4.11132 9.54492,4.11132 3.807,0 6.95797,-1.34832 9.54297,-4.11132 2.586,-2.763 3.9082,-6.22643 3.9082,-10.16993 0,-3.9435 -1.3222,-7.35614 -3.9082,-10.11914 -2.585,-2.763 -5.78797,-4.16406 -9.54297,-4.16406 z m 0,6.81055 c 1.981,0 3.60078,0.71423 4.92578,2.11523 1.325,1.4139 1.98047,3.19112 1.98047,5.35742 0,2.1663 -0.65547,3.95643 -1.98047,5.35743 -1.325,1.4139 -2.94478,2.11328 -4.92578,2.11328 -1.981,0 -3.60374,-0.71228 -4.92773,-2.11328 -1.274,-1.4658 -1.92969,-3.24303 -1.92969,-5.35743 0,-2.1144 0.65569,-3.89162 1.92969,-5.35742 1.32399,-1.4139 2.94673,-2.11523 4.92773,-2.11523 z"
           transform="translate(-326.2792,-329.86031)"
           fill="currentColor" />
        <path
           id="path1893"
           d="m 520.0293,329.85938 v 0.0137 14.02343 c -1.929,-2.6462 -4.82247,-3.94336 -8.23047,-3.94336 -3.409,1e-5 -6.35416,1.40107 -8.78516,4.16407 -2.379,2.7631 -3.59961,6.12179 -3.59961,10.11719 0,3.99529 1.20761,7.40692 3.59961,10.16992 2.444,2.7631 5.22216,4.11328 8.78516,4.11328 3.562,0 6.30147,-1.31073 8.23047,-3.95703 v 3.1914 h 6.54882 v -37.89257 z m -7.00782,16.73437 c 2.032,0 3.7043,0.70022 5.0293,2.16602 1.324,1.401 1.97852,3.24273 1.97852,5.46093 0,2.2182 -0.65452,4.04788 -1.97852,5.51368 -1.325,1.41399 -3.0493,2.11523 -5.0293,2.11523 -1.981,0 -3.70603,-0.71424 -5.08203,-2.11523 -1.325,-1.4528 -1.98047,-3.29548 -1.98047,-5.51368 0,-2.2182 0.65547,-4.05993 1.98047,-5.46093 1.376,-1.4658 3.04903,-2.16602 5.08203,-2.16602 z"
           transform="translate(-326.2792,-329.86031)"
           fill="currentColor" />
        <path
           id="path1889"
           d="m 482.70508,339.93945 c -3.756,0 -6.95797,1.40107 -9.54297,4.16407 -2.586,2.763 -3.85938,6.05698 -3.85938,10.11718 0,4.0602 1.27338,7.40878 3.85938,10.17188 2.585,2.763 5.73597,4.11133 9.54297,4.11133 3.807,0 6.95892,-1.34833 9.54492,-4.11133 2.585,-2.7631 3.91016,-6.22848 3.91016,-10.17188 0,-3.9435 -1.32516,-7.35418 -3.91016,-10.11718 -2.586,-2.763 -5.78892,-4.16407 -9.54492,-4.16407 z m 0,6.81055 c 1.981,0 3.60078,0.71228 4.92578,2.11328 1.325,1.4139 1.98047,3.19112 1.98047,5.35742 0,2.1663 -0.65547,3.95643 -1.98047,5.35742 -1.325,1.4139 -2.94478,2.11524 -4.92578,2.11524 -1.981,0 -3.60078,-0.71434 -4.92578,-2.11524 -1.273,-1.46579 -1.92969,-3.24302 -1.92969,-5.35742 0,-2.1144 0.65669,-3.89162 1.92969,-5.35742 1.325,-1.414 2.94478,-2.11328 4.92578,-2.11328 z"
           transform="translate(-326.2792,-329.86031)"
           fill="currentColor" />
        <path
           d="m 140.477,17.538 h -5.736 v 11.2597 c 0,1.3491 0.514,2.1663 1.479,2.5425 0.707,0.2724 2.135,0.3243 4.27,0.2205 v 6.3303 c -4.411,0.5448 -7.614,0.1038 -9.492,-1.3491 -1.878,-1.401 -2.791,-4.0083 -2.791,-7.7313 V 17.538 h -4.412 v -6.7064 h 4.412 V 5.37038 l 6.547,-2.11443 v 7.57565 h 5.736 v 6.7064 z"
           id="path1885"
           fill="currentColor" />
        <path
           d="m 119.654,23.8683 c 1.929,1.4659 2.894,3.5154 2.842,6.1098 0,2.763 -0.964,4.9294 -2.945,6.4341 -1.981,1.4658 -4.373,2.2182 -7.267,2.2182 -5.235,0 -8.785,-2.1663 -10.663,-6.4341 l 5.685,-3.4116 c 0.759,2.322 2.431,3.5154 4.978,3.5154 2.341,0 3.498,-0.7524 3.498,-2.322 0,-1.1415 -1.517,-2.1663 -4.617,-2.9706 -1.17,-0.3242 -2.135,-0.6485 -2.894,-0.921 -1.067,-0.428 -1.981,-0.921 -2.739,-1.5177 -1.878,-1.4658 -2.843,-3.4116 -2.843,-5.9022 0,-2.6463 0.913,-4.7607 2.74,-6.2784 1.877,-1.5696 4.167,-2.322 6.906,-2.322 4.374,0 7.563,1.8939 9.647,5.7336 l -5.582,3.243 c -0.81,-1.842 -2.187,-2.763 -4.065,-2.763 -1.98,0 -2.945,0.7523 -2.945,2.2182 0,1.1415 1.518,2.1663 4.618,2.9705 2.392,0.5449 4.27,1.3491 5.633,2.3869 z"
           id="path1883"
           fill="currentColor" />
        <path
           d="M 66.1484,21.4685 V 38.3839 H 59.4988 V 21.9744 c 0,-3.4635 -1.4405,-5.2147 -4.3345,-5.2147 -3.1897,0 -4.7975,2.0885 -4.7975,6.2006 v 8.9896 h -6.5981 v -8.9896 c 0,-4.1251 -1.5949,-6.2006 -4.7975,-6.2006 -2.8811,0 -4.3345,1.7512 -4.3345,5.2147 V 38.3839 H 28 V 21.4685 c 0,-3.4505 0.8746,-6.2005 2.6238,-8.2371 1.8136,-2.0366 4.1801,-3.0744 7.1127,-3.0744 3.3955,0 5.9807,1.3232 7.6785,3.9565 l 1.6592,2.8019 1.6592,-2.8019 c 1.6977,-2.6333 4.2701,-3.9565 7.6785,-3.9565 2.9325,0 5.2991,1.0378 7.1127,3.0744 1.7492,2.0366 2.6238,4.7736 2.6238,8.2371 z"
           id="path828"
           fill="currentColor" />
        <g
           id="g2359"
           transform="matrix(0.11503157,0,0,0.11503157,66.804065,5.4333894)"
           fill="currentColor">
          <g
             id="s"
             transform="translate(150,30)"
             fill="currentColor">
            <g
               id="c"
               fill="currentColor">
              <path
                 id="t"
                 d="M 0,-20 V 0 h 10"
                 transform="rotate(18,0,-20)"
                 fill="currentColor" />
              <use
                 xlink:href="#t"
                 transform="scale(-1,1)"
                 id="use2300"
                 x="0"
                 y="0"
                 width="100%"
                 height="100%"
                 fill="currentColor" />
            </g>
            <use
               xlink:href="#c"
               transform="rotate(72)"
               id="use2303"
               x="0"
               y="0"
               width="100%"
               height="100%"
               fill="currentColor" />
            <use
               xlink:href="#c"
               transform="rotate(144)"
               id="use2305"
               x="0"
               y="0"
               width="100%"
               height="100%"
               fill="currentColor" />
            <use
               xlink:href="#c"
               transform="rotate(-144)"
               id="use2307"
               x="0"
               y="0"
               width="100%"
               height="100%"
               fill="currentColor" />
            <use
               xlink:href="#c"
               transform="rotate(-72)"
               id="use2309"
               x="0"
               y="0"
               width="100%"
               height="100%"
               fill="currentColor" />
          </g>
          <use
             xlink:href="#s"
             transform="translate(60,16.076952)"
             id="use2312"
             x="0"
             y="0"
             width="100%"
             height="100%"
             fill="currentColor" />
          <use
             xlink:href="#s"
             transform="translate(103.92305,60)"
             id="use2314"
             x="0"
             y="0"
             width="100%"
             height="100%"
             fill="currentColor" />
          <use
             xlink:href="#s"
             transform="translate(120,120)"
             id="use2316"
             x="0"
             y="0"
             width="100%"
             height="100%"
             fill="currentColor" />
          <use
             xlink:href="#s"
             transform="translate(103.92305,180)"
             id="use2318"
             x="0"
             y="0"
             width="100%"
             height="100%"
             fill="currentColor" />
          <use
             xlink:href="#s"
             transform="translate(60,223.92305)"
             id="use2320"
             x="0"
             y="0"
             width="100%"
             height="100%"
             fill="currentColor" />
          <use
             xlink:href="#s"
             transform="translate(0,240)"
             id="use2322"
             x="0"
             y="0"
             width="100%"
             height="100%"
             fill="currentColor" />
          <use
             xlink:href="#s"
             transform="translate(-60,223.92305)"
             id="use2324"
             x="0"
             y="0"
             width="100%"
             height="100%"
             fill="currentColor" />
          <use
             xlink:href="#s"
             transform="translate(-103.92305,180)"
             id="use2326"
             x="0"
             y="0"
             width="100%"
             height="100%"
             fill="currentColor" />
          <use
             xlink:href="#s"
             transform="translate(-120,120)"
             id="use2328"
             x="0"
             y="0"
             width="100%"
             height="100%"
             fill="currentColor" />
          <use
             xlink:href="#s"
             transform="translate(-103.92305,60)"
             id="use2330"
             x="0"
             y="0"
             width="100%"
             height="100%"
             fill="currentColor" />
          <use
             xlink:href="#s"
             transform="translate(-60,16.076952)"
             id="use2332"
             x="0"
             y="0"
             width="100%"
             height="100%"
             fill="currentColor" />
        </g>
        <defs
           id="defs835">
          <linearGradient
             id="RESERVED_FOR_INKSCAPE_DUPLICATE_DEF_000000000"
             x1="30.5"
             y1="0.0130005"
             x2="30.5"
             y2="65.013"
             gradientUnits="userSpaceOnUse">
            <stop
               stop-color="#6364FF"
               id="stop852" />
            <stop
               offset="1"
               stop-color="#563ACC"
               id="stop854" />
          </linearGradient>
        </defs>
      </symbol>
      <use
         xlink:href="#logo-symbol-wordmark"
         id="use838"
         x="0"
         y="0"
         width="100%"
         height="100%" />
    </g>
  </g>
</svg>
